<svg width="65" height="64" viewBox="0 0 65 64" fill="none" xmlns="http://www.w3.org/2000/svg">
<rect x="0.5" width="64" height="64" rx="32" fill="#76BD43" fill-opacity="0.15"/>
<path fill-rule="evenodd" clip-rule="evenodd" d="M22.0125 15.0405C20.7233 15.0405 19.6675 16.0929 19.6675 17.3809V25.5125C19.6675 25.6672 19.7289 25.8156 19.8383 25.925C19.9477 26.0344 20.0961 26.0959 20.2508 26.0959C20.4055 26.0959 20.5539 26.0344 20.6633 25.925C20.7727 25.8156 20.8341 25.6672 20.8341 25.5125V17.382C20.8324 17.227 20.8617 17.0732 20.9204 16.9298C20.9791 16.7863 21.0659 16.656 21.1757 16.5466C21.2855 16.4372 21.4162 16.3509 21.5599 16.2928C21.7036 16.2347 21.8575 16.206 22.0125 16.2084H39.3235V19.16C39.3235 19.16 39.3141 19.7177 39.6058 20.2917C39.8975 20.8657 40.5951 21.4817 41.6673 21.4817H44.6073V45.949C44.6092 46.1042 44.58 46.2581 44.5214 46.4018C44.4628 46.5455 44.3761 46.676 44.2662 46.7856C44.1564 46.8952 44.0257 46.9817 43.8819 47.04C43.7381 47.0983 43.5841 47.1272 43.429 47.125H22.0125C21.8572 47.1272 21.7031 47.0983 21.5592 47.0399C21.4154 46.9816 21.2846 46.8949 21.1748 46.7852C21.065 46.6755 20.9782 46.5448 20.9197 46.401C20.8612 46.2572 20.8321 46.1031 20.8341 45.9479V28.5249C20.8341 28.3702 20.7727 28.2218 20.6633 28.1124C20.5539 28.003 20.4055 27.9415 20.2508 27.9415C20.0961 27.9415 19.9477 28.003 19.8383 28.1124C19.7289 28.2218 19.6675 28.3702 19.6675 28.5249V45.9479C19.6675 47.2359 20.7233 48.2905 22.0125 48.2905H43.429C44.717 48.2905 45.774 47.2359 45.774 45.9479V20.9404C45.7792 20.8671 45.7705 20.7934 45.7483 20.7234C45.7472 20.7187 45.746 20.714 45.7448 20.7094C45.7336 20.6771 45.7195 20.6458 45.7028 20.616C45.7009 20.6113 45.699 20.6067 45.697 20.602C45.6896 20.5901 45.6818 20.5784 45.6736 20.567C45.6706 20.5631 45.6675 20.5592 45.6643 20.5554C45.6559 20.5426 45.6469 20.5301 45.6375 20.518C45.6344 20.5149 45.6313 20.5118 45.6281 20.5087C45.6199 20.4995 45.6113 20.4905 45.6025 20.4819L40.3186 15.2085C40.2632 15.1536 40.1974 15.1104 40.125 15.0814C40.0888 15.0672 40.0513 15.0566 40.013 15.0499C39.9937 15.0458 39.9742 15.0427 39.9546 15.0405C39.9387 15.0399 39.9228 15.0399 39.9068 15.0405H22.0125ZM40.4901 17.0297L43.7801 20.3127H41.6685C40.979 20.3127 40.7958 20.0584 40.6465 19.7644C40.4971 19.4692 40.4901 19.1577 40.4901 19.1577V17.0297ZM31.9408 21.5004V21.5249C31.9233 21.5234 31.9058 21.5234 31.8883 21.5249C31.8821 21.5247 31.8759 21.5247 31.8696 21.5249C31.865 21.5248 31.8603 21.5248 31.8556 21.5249C31.8541 21.5249 31.8525 21.5249 31.851 21.5249C31.8426 21.5299 31.8344 21.5354 31.8265 21.5412C31.8241 21.5412 31.8218 21.5412 31.8195 21.5412C31.7602 21.5675 31.7109 21.612 31.6786 21.6682C31.6463 21.7244 31.6327 21.7894 31.6398 21.8539V23.0112C31.6372 23.0341 31.6372 23.0572 31.6398 23.08V24.235C31.635 24.2795 31.6401 24.3245 31.6546 24.3669C31.6691 24.4092 31.6927 24.4478 31.7238 24.48C31.7261 24.4801 31.7285 24.4801 31.7308 24.48C31.7427 24.492 31.7556 24.5029 31.7693 24.5127C31.7716 24.5127 31.774 24.5127 31.7763 24.5127C31.7779 24.5127 31.7794 24.5127 31.781 24.5127C31.8397 24.5509 31.9097 24.5678 31.9793 24.5605H33.1635C33.2447 24.5605 33.3226 24.5283 33.38 24.4708C33.4375 24.4134 33.4697 24.3355 33.4697 24.2543C33.4697 24.1731 33.4375 24.0952 33.38 24.0377C33.3226 23.9803 33.2447 23.948 33.1635 23.948H32.25V23.3367H32.5533C32.6345 23.3367 32.7124 23.3044 32.7699 23.247C32.8273 23.1896 32.8596 23.1117 32.8596 23.0304C32.8596 22.9492 32.8273 22.8713 32.7699 22.8139C32.7124 22.7565 32.6345 22.7242 32.5533 22.7242H32.25V22.1129H33.1635C33.2447 22.1129 33.3226 22.0806 33.38 22.0232C33.4375 21.9657 33.4697 21.8878 33.4697 21.8066C33.4697 21.7254 33.4375 21.6475 33.38 21.5901C33.3226 21.5326 33.2447 21.5004 33.1635 21.5004H31.97C31.9603 21.4999 31.9505 21.4999 31.9408 21.5004ZM29.4931 21.5237C29.4528 21.524 29.4129 21.5335 29.3758 21.5492C29.3387 21.565 29.3051 21.588 29.2769 21.6169C29.2487 21.6457 29.2264 21.6799 29.2115 21.7173C29.1966 21.7548 29.1892 21.7949 29.1898 21.8352V24.2537C29.1885 24.2811 29.1908 24.3086 29.1968 24.3354C29.1987 24.3448 29.201 24.3541 29.2038 24.3634C29.2044 24.3688 29.2052 24.3743 29.2061 24.3797C29.2089 24.3876 29.2121 24.3954 29.2155 24.403C29.2206 24.4147 29.2264 24.426 29.233 24.4369C29.2366 24.4436 29.2405 24.4502 29.2446 24.4567C29.2454 24.4567 29.2462 24.4567 29.247 24.4567C29.2515 24.4623 29.2561 24.4678 29.261 24.473C29.2658 24.4791 29.2709 24.4849 29.2761 24.4905C29.2784 24.4953 29.2807 24.4999 29.2831 24.5045C29.2847 24.5045 29.2863 24.5045 29.2878 24.5045C29.2946 24.5103 29.3016 24.5157 29.3088 24.5209C29.3111 24.5209 29.3135 24.5209 29.3158 24.5209C29.3233 24.5267 29.3311 24.5321 29.3391 24.5372C29.3881 24.5679 29.4447 24.5841 29.5025 24.5839H30.7193C30.8005 24.5839 30.8784 24.5516 30.9359 24.4942C30.9933 24.4367 31.0256 24.3588 31.0256 24.2776C31.0256 24.1964 30.9933 24.1185 30.9359 24.0611C30.8784 24.0036 30.8005 23.9714 30.7193 23.9714H29.8046V21.8329C29.8051 21.7919 29.7974 21.7513 29.7819 21.7134C29.7663 21.6756 29.7434 21.6412 29.7143 21.6124C29.6853 21.5835 29.6507 21.5608 29.6127 21.5456C29.5747 21.5304 29.5341 21.5229 29.4931 21.5237ZM24.5663 21.5249C24.5531 21.5294 24.5403 21.5349 24.5278 21.5412C24.2979 21.5585 24.083 21.6617 23.9258 21.8304C23.7687 21.999 23.6808 22.2207 23.6796 22.4512C23.681 22.6899 23.775 22.9187 23.9416 23.0895C24.1083 23.2603 24.3348 23.3598 24.5733 23.367C24.5772 23.3671 24.5811 23.3671 24.585 23.367H24.5873C24.5931 23.3672 24.599 23.3672 24.6048 23.367C24.7798 23.367 24.9105 23.5 24.9105 23.6739C24.9105 23.8489 24.7798 23.9795 24.6048 23.9795H23.9923C23.9507 23.977 23.9089 23.9829 23.8697 23.9971C23.8304 24.0113 23.7945 24.0333 23.7641 24.0619C23.7337 24.0905 23.7094 24.125 23.6929 24.1633C23.6763 24.2016 23.6678 24.2429 23.6678 24.2846C23.6678 24.3263 23.6763 24.3676 23.6929 24.4059C23.7094 24.4442 23.7337 24.4787 23.7641 24.5073C23.7945 24.5359 23.8304 24.558 23.8697 24.5721C23.9089 24.5863 23.9507 24.5923 23.9923 24.5897H24.6048C24.6261 24.5919 24.6477 24.5919 24.669 24.5897C24.8998 24.5738 25.1161 24.4714 25.2747 24.3029C25.4332 24.1344 25.5223 23.9122 25.5241 23.6809C25.5227 23.4659 25.4463 23.2581 25.3081 23.0935C25.1699 22.9288 24.9785 22.8176 24.767 22.779C24.7347 22.768 24.7008 22.7625 24.6666 22.7627H24.62C24.6149 22.7626 24.6099 22.7626 24.6048 22.7627C24.6021 22.7627 24.5994 22.7627 24.5966 22.7627C24.5562 22.7638 24.5159 22.7567 24.4784 22.7417C24.4408 22.7268 24.4066 22.7043 24.378 22.6757C24.3494 22.6471 24.3269 22.6129 24.312 22.5753C24.297 22.5377 24.2899 22.4975 24.291 22.457C24.291 22.282 24.4216 22.1525 24.5966 22.1525H25.2091C25.2905 22.1525 25.3686 22.1202 25.4261 22.0627C25.4837 22.0051 25.516 21.9271 25.516 21.8457C25.516 21.7643 25.4837 21.6863 25.4261 21.6287C25.3686 21.5712 25.2905 21.5389 25.2091 21.5389H24.5966C24.5865 21.5384 24.5764 21.5384 24.5663 21.5389V21.5249ZM27.3313 21.5249C27.2736 21.5299 27.2185 21.5512 27.1725 21.5863C27.1264 21.6214 27.0913 21.6689 27.0711 21.7232L26.153 24.1709C26.1293 24.2458 26.1354 24.327 26.1698 24.3976C26.2043 24.4683 26.2645 24.523 26.3381 24.5506C26.4117 24.5781 26.4931 24.5763 26.5655 24.5456C26.6378 24.5149 26.6956 24.4576 26.727 24.3855L26.8786 23.9749H27.8341L27.9858 24.3855C28.0143 24.4618 28.0719 24.5236 28.1459 24.5574C28.22 24.5912 28.3045 24.5942 28.3807 24.5658C28.457 24.5373 28.5188 24.4797 28.5526 24.4057C28.5864 24.3316 28.5894 24.2471 28.561 24.1709L27.6428 21.7232C27.6212 21.6655 27.5827 21.6158 27.5323 21.5804C27.4819 21.545 27.422 21.5256 27.3605 21.5249C27.3504 21.5244 27.3403 21.5244 27.3301 21.5249H27.3313ZM34.973 21.5249C34.9598 21.5294 34.9469 21.5349 34.9345 21.5412C34.7048 21.5596 34.4903 21.6633 34.3333 21.832C34.1763 22.0006 34.0882 22.222 34.0863 22.4524C34.0863 22.9482 34.4876 23.353 34.98 23.367C34.9839 23.3671 34.9878 23.3671 34.9916 23.367H34.994C34.9998 23.368 35.0056 23.3688 35.0115 23.3694C35.1865 23.3694 35.3171 23.5 35.3171 23.6739C35.3171 23.8489 35.1865 23.9795 35.0115 23.9795H34.399C34.3178 23.9795 34.2399 24.0118 34.1824 24.0692C34.125 24.1267 34.0927 24.2046 34.0927 24.2858C34.0927 24.367 34.125 24.4449 34.1824 24.5023C34.2399 24.5598 34.3178 24.592 34.399 24.592H35.0115C35.0328 24.5943 35.0543 24.5943 35.0756 24.592C35.3064 24.5761 35.5226 24.4737 35.6809 24.3051C35.8393 24.1366 35.9281 23.9145 35.9296 23.6832C35.9283 23.4684 35.852 23.2608 35.714 23.0961C35.576 22.9315 35.3849 22.8202 35.1736 22.7814C35.1413 22.7704 35.1074 22.7648 35.0733 22.765H35.0266C35.0216 22.7649 35.0165 22.7649 35.0115 22.765C35.0088 22.765 35.006 22.765 35.0033 22.765C34.9629 22.7662 34.9226 22.759 34.885 22.7441C34.8474 22.7291 34.8133 22.7066 34.7847 22.678C34.7561 22.6494 34.7336 22.6153 34.7186 22.5777C34.7037 22.5401 34.6965 22.4998 34.6976 22.4594C34.6976 22.2844 34.8283 22.1549 35.0033 22.1549H35.6158C35.6972 22.1549 35.7752 22.1225 35.8328 22.065C35.8903 22.0075 35.9226 21.9294 35.9226 21.848C35.9226 21.7667 35.8903 21.6886 35.8328 21.6311C35.7752 21.5735 35.6972 21.5412 35.6158 21.5412H35.0033C34.9932 21.5407 34.9831 21.5407 34.973 21.5412V21.5249ZM27.3558 22.702L27.6055 23.3635H27.1108L27.3558 22.702ZM34.5985 27.3617C34.5662 27.3648 34.5343 27.3703 34.5028 27.378H33.0608C32.8831 27.378 32.7126 27.4486 32.5869 27.5743C32.4612 27.7 32.3906 27.8705 32.3906 28.0483C32.3906 28.226 32.4612 28.3965 32.5869 28.5222C32.7126 28.6479 32.8831 28.7185 33.0608 28.7185H33.4551L32.0248 31.102L29.933 29.6367C29.7945 29.5397 29.6245 29.4986 29.457 29.5217C29.2895 29.5449 29.1369 29.6306 29.03 29.7615L26.3513 33.0457C26.2913 33.1132 26.2456 33.1921 26.2168 33.2777C26.1881 33.3632 26.177 33.4538 26.1841 33.5438C26.1912 33.6338 26.2165 33.7214 26.2584 33.8014C26.3003 33.8814 26.3579 33.9521 26.4278 34.0092C26.4977 34.0664 26.5784 34.1088 26.6652 34.1339C26.7519 34.1591 26.8428 34.1664 26.9324 34.1556C27.022 34.1447 27.1085 34.1158 27.1867 34.0706C27.2649 34.0254 27.3331 33.9649 27.3873 33.8927L29.6751 31.0927L31.8451 32.6117C31.9205 32.6645 32.0059 32.7013 32.096 32.7196C32.1862 32.738 32.2791 32.7376 32.3691 32.7184C32.4591 32.6993 32.5441 32.6618 32.619 32.6083C32.6938 32.5548 32.7569 32.4865 32.8041 32.4075L34.4013 29.7452V30.0579C34.4013 30.1458 34.4186 30.2329 34.4523 30.3141C34.4859 30.3954 34.5353 30.4692 34.5975 30.5314C34.6596 30.5936 34.7335 30.6429 34.8147 30.6766C34.896 30.7102 34.983 30.7275 35.071 30.7275C35.1589 30.7275 35.246 30.7102 35.3273 30.6766C35.4085 30.6429 35.4823 30.5936 35.5445 30.5314C35.6067 30.4692 35.656 30.3954 35.6897 30.3141C35.7233 30.2329 35.7406 30.1458 35.7406 30.0579V28.0477C35.7406 27.8701 35.6701 27.6998 35.5445 27.5742C35.4189 27.4486 35.2486 27.378 35.071 27.378H34.798C34.7539 27.3681 34.709 27.3626 34.6638 27.3617C34.6417 27.3606 34.6206 27.3606 34.5985 27.3617ZM24.34 28.6917C24.1628 28.6945 23.9939 28.7674 23.8703 28.8944C23.7468 29.0215 23.6786 29.1923 23.6808 29.3695V40.0912C23.6808 40.1792 23.6982 40.2664 23.7319 40.3477C23.7656 40.4291 23.8151 40.5029 23.8774 40.5651C23.9397 40.6273 24.0136 40.6766 24.095 40.7102C24.1764 40.7438 24.2636 40.761 24.3516 40.7609H37.7415C37.9192 40.7609 38.0897 40.6902 38.2154 40.5646C38.3411 40.4389 38.4117 40.2684 38.4117 40.0906C38.4117 39.9128 38.3411 39.7424 38.2154 39.6167C38.0897 39.491 37.9192 39.4204 37.7415 39.4204H35.75V32.0494C35.7512 31.9598 35.7345 31.871 35.7009 31.788C35.6672 31.7051 35.6172 31.6297 35.5539 31.5664C35.4906 31.5031 35.4152 31.4532 35.3323 31.4195C35.2494 31.3858 35.1605 31.3691 35.071 31.3704C34.983 31.3716 34.8962 31.3901 34.8154 31.4249C34.7346 31.4597 34.6615 31.51 34.6002 31.5731C34.5388 31.6361 34.4906 31.7107 34.458 31.7924C34.4255 31.8741 34.4094 31.9614 34.4106 32.0494V39.4204H33.0701V34.7304C33.0716 34.6406 33.0549 34.5514 33.0212 34.4681C32.9874 34.3849 32.9373 34.3093 32.8737 34.2458C32.8101 34.1824 32.7344 34.1323 32.6511 34.0987C32.5678 34.0651 32.4786 34.0486 32.3888 34.0502C32.3009 34.0517 32.2141 34.0705 32.1334 34.1056C32.0527 34.1407 31.9798 34.1913 31.9187 34.2546C31.8576 34.3178 31.8095 34.3925 31.7773 34.4744C31.7451 34.5562 31.7293 34.6436 31.7308 34.7315V39.4215H30.3891V33.622C30.3904 33.5323 30.3736 33.4433 30.3398 33.3602C30.306 33.2771 30.2558 33.2016 30.1923 33.1383C30.1287 33.0749 30.0531 33.025 29.9699 32.9915C29.8866 32.9579 29.7975 32.9415 29.7078 32.943C29.5306 32.9461 29.3618 33.0193 29.2385 33.1466C29.1152 33.2738 29.0473 33.4448 29.0498 33.622V39.4204H27.7081V36.051C27.7094 35.9615 27.6927 35.8727 27.659 35.7897C27.6253 35.7068 27.5754 35.6314 27.5121 35.5681C27.4488 35.5048 27.3734 35.4548 27.2905 35.4212C27.2075 35.3875 27.1187 35.3708 27.0291 35.372C26.9411 35.3731 26.8541 35.3915 26.7732 35.4262C26.6923 35.4609 26.619 35.5113 26.5576 35.5743C26.4961 35.6374 26.4477 35.712 26.4151 35.7938C26.3826 35.8756 26.3664 35.963 26.3676 36.051V39.4204H25.0201V29.3695C25.0214 29.2798 25.0046 29.1908 24.9708 29.1077C24.937 29.0246 24.8868 28.9491 24.8233 28.8858C24.7597 28.8224 24.6841 28.7725 24.6009 28.739C24.5176 28.7054 24.4285 28.689 24.3388 28.6905L24.34 28.6917ZM40.6616 29.6635V29.667C40.5934 29.6681 40.5261 29.6826 40.4635 29.7098C40.4009 29.737 40.3443 29.7762 40.2969 29.8253C40.2495 29.8744 40.2123 29.9324 40.1874 29.996C40.1625 30.0595 40.1504 30.1273 40.1518 30.1955V30.647C39.1345 30.8605 38.3376 31.6854 38.3376 32.7202C38.3376 33.9067 39.3853 34.8132 40.6126 34.8424C40.6313 34.8424 40.6511 34.854 40.671 34.854C41.4281 34.854 41.9625 35.3674 41.9625 35.9472C41.9625 36.5235 41.4328 37.0322 40.6826 37.038C40.6764 37.0379 40.6702 37.0379 40.664 37.038H40.6616C40.6609 37.038 40.6601 37.038 40.6593 37.038C39.908 37.038 39.3748 36.5235 39.3748 35.9472C39.3748 35.8097 39.3202 35.6778 39.2229 35.5805C39.1257 35.4832 38.9938 35.4286 38.8562 35.4286C38.7187 35.4286 38.5868 35.4832 38.4895 35.5805C38.3923 35.6778 38.3376 35.8097 38.3376 35.9472C38.3376 36.9669 39.1508 37.696 40.1518 37.913V38.4789C40.1518 38.6162 40.2064 38.748 40.3035 38.8451C40.4007 38.9423 40.5324 38.9969 40.6698 38.9969C40.8072 38.9969 40.939 38.9423 41.0361 38.8451C41.1332 38.748 41.1878 38.6162 41.1878 38.4789V37.913C42.1888 37.696 42.9996 36.968 42.9996 35.9472C42.9996 34.8715 42.0978 34.1202 41.0245 33.9487C40.9975 33.9251 40.9682 33.9044 40.937 33.8869C40.9267 33.8807 40.9162 33.8748 40.9055 33.8694C40.9001 33.8654 40.8947 33.8615 40.8891 33.8577C40.8788 33.8527 40.8683 33.848 40.8576 33.8437C40.8523 33.8389 40.8469 33.8342 40.8413 33.8297C40.8302 33.8254 40.8189 33.8215 40.8075 33.818C40.8028 33.818 40.7981 33.818 40.7935 33.818C40.782 33.8137 40.7703 33.8098 40.7585 33.8064C40.7526 33.8063 40.7468 33.8063 40.741 33.8064C40.7406 33.8064 40.7414 33.8064 40.741 33.8064C40.7243 33.8056 40.7064 33.8056 40.6896 33.8064C40.6826 33.8062 40.6756 33.8062 40.6686 33.8064C39.9115 33.8064 39.3736 33.2954 39.3736 32.7155C39.3736 32.1439 39.8998 31.6399 40.6418 31.627C40.6612 31.6281 40.6807 31.6281 40.7001 31.627C41.4398 31.6422 41.9625 32.1427 41.9625 32.7132C41.9625 32.8507 42.0171 32.9826 42.1144 33.0799C42.2116 33.1771 42.3435 33.2318 42.4811 33.2318C42.6186 33.2318 42.7505 33.1771 42.8478 33.0799C42.945 32.9826 42.9996 32.8507 42.9996 32.7132C42.9996 31.6795 42.2051 30.8535 41.1878 30.64V30.1885C41.1888 30.1193 41.1758 30.0506 41.1498 29.9865C41.1237 29.9224 41.0851 29.8641 41.0361 29.8152C40.9872 29.7663 40.929 29.7276 40.8648 29.7016C40.8007 29.6755 40.7309 29.6626 40.6616 29.6635Z" fill="#76BD43"/>
</svg>
