<svg width="64" height="64" viewBox="0 0 64 64" fill="none" xmlns="http://www.w3.org/2000/svg">
<rect width="64" height="64" rx="32" fill="#76BD43" fill-opacity="0.15"/>
<path fill-rule="evenodd" clip-rule="evenodd" d="M21.511 15.0407C20.2218 15.0407 19.166 16.093 19.166 17.381V25.5127C19.166 25.6674 19.2275 25.8157 19.3369 25.9251C19.4463 26.0345 19.5946 26.096 19.7493 26.096C19.9041 26.096 20.0524 26.0345 20.1618 25.9251C20.2712 25.8157 20.3327 25.6674 20.3327 25.5127V17.3822C20.331 17.2271 20.3603 17.0734 20.4189 16.9299C20.4776 16.7864 20.5644 16.6561 20.6742 16.5467C20.7841 16.4373 20.9147 16.351 21.0584 16.293C21.2021 16.2349 21.356 16.2061 21.511 16.2085H38.822V19.1602C38.822 19.1602 38.8127 19.7178 39.1043 20.2918C39.396 20.8658 40.0937 21.4818 41.1658 21.4818H44.1058V45.9492C44.1077 46.1043 44.0785 46.2583 44.0199 46.4019C43.9614 46.5456 43.8746 46.6761 43.7648 46.7857C43.655 46.8953 43.5243 46.9819 43.3805 47.0401C43.2367 47.0984 43.0827 47.1273 42.9275 47.1252H21.511C21.3558 47.1273 21.2017 47.0984 21.0578 47.04C20.9139 46.9817 20.7832 46.8951 20.6733 46.7853C20.5635 46.6756 20.4767 46.545 20.4182 46.4011C20.3597 46.2573 20.3306 46.1032 20.3327 45.948V28.525C20.3327 28.3703 20.2712 28.2219 20.1618 28.1125C20.0524 28.0031 19.9041 27.9417 19.7493 27.9417C19.5946 27.9417 19.4463 28.0031 19.3369 28.1125C19.2275 28.2219 19.166 28.3703 19.166 28.525V45.948C19.166 47.236 20.2218 48.2906 21.511 48.2906H42.9275C44.2155 48.2906 45.2725 47.236 45.2725 45.948V20.9405C45.2777 20.8672 45.269 20.7936 45.2468 20.7235C45.2457 20.7188 45.2446 20.7141 45.2433 20.7095C45.2321 20.6772 45.2181 20.646 45.2013 20.6162C45.1995 20.6115 45.1975 20.6068 45.1955 20.6022C45.1882 20.5902 45.1804 20.5785 45.1722 20.5672C45.1691 20.5632 45.166 20.5593 45.1628 20.5555C45.1544 20.5427 45.1454 20.5302 45.136 20.5182C45.1329 20.515 45.1298 20.5119 45.1267 20.5088C45.1184 20.4996 45.1099 20.4907 45.101 20.482L39.8172 15.2087C39.7618 15.1537 39.6959 15.1105 39.6235 15.0815C39.5873 15.0673 39.5498 15.0567 39.5115 15.05C39.4922 15.0459 39.4728 15.0428 39.4532 15.0407C39.4372 15.04 39.4213 15.04 39.4053 15.0407H21.511ZM39.9887 17.0298L43.2787 20.3128H41.167C40.4775 20.3128 40.2943 20.0585 40.145 19.7645C39.9957 19.4693 39.9887 19.1578 39.9887 19.1578V17.0298ZM31.4393 21.5005V21.525C31.4219 21.5235 31.4043 21.5235 31.3868 21.525C31.3806 21.5248 31.3744 21.5248 31.3682 21.525C31.3635 21.5249 31.3588 21.5249 31.3542 21.525C31.3526 21.525 31.3511 21.525 31.3495 21.525C31.3411 21.53 31.3329 21.5355 31.325 21.5413C31.3227 21.5413 31.3203 21.5413 31.318 21.5413C31.2588 21.5677 31.2095 21.6121 31.1772 21.6683C31.1449 21.7245 31.1313 21.7896 31.1383 21.854V23.0113C31.1358 23.0342 31.1358 23.0573 31.1383 23.0802V24.2352C31.1336 24.2796 31.1386 24.3247 31.1531 24.367C31.1676 24.4093 31.1913 24.448 31.2223 24.4802C31.2247 24.4802 31.227 24.4802 31.2293 24.4802C31.2413 24.4921 31.2541 24.503 31.2678 24.5128C31.2702 24.5128 31.2725 24.5128 31.2748 24.5128C31.2764 24.5128 31.278 24.5128 31.2795 24.5128C31.3382 24.551 31.4082 24.5679 31.4778 24.5607H32.662C32.7432 24.5607 32.8211 24.5284 32.8786 24.471C32.936 24.4135 32.9683 24.3356 32.9683 24.2544C32.9683 24.1732 32.936 24.0953 32.8786 24.0379C32.8211 23.9804 32.7432 23.9482 32.662 23.9482H31.7485V23.3368H32.0518C32.1331 23.3368 32.211 23.3046 32.2684 23.2471C32.3258 23.1897 32.3581 23.1118 32.3581 23.0306C32.3581 22.9493 32.3258 22.8714 32.2684 22.814C32.211 22.7566 32.1331 22.7243 32.0518 22.7243H31.7485V22.113H32.662C32.7432 22.113 32.8211 22.0807 32.8786 22.0233C32.936 21.9659 32.9683 21.888 32.9683 21.8067C32.9683 21.7255 32.936 21.6476 32.8786 21.5902C32.8211 21.5327 32.7432 21.5005 32.662 21.5005H31.4685C31.4588 21.5 31.4491 21.5 31.4393 21.5005ZM28.9917 21.5238C28.9513 21.5241 28.9115 21.5336 28.8743 21.5494C28.8372 21.5652 28.8036 21.5881 28.7754 21.617C28.7472 21.6458 28.725 21.68 28.71 21.7175C28.6951 21.7549 28.6877 21.795 28.6883 21.8353V24.2538C28.687 24.2812 28.6894 24.3087 28.6953 24.3355C28.6972 24.3449 28.6996 24.3543 28.7023 24.3635C28.703 24.3689 28.7038 24.3744 28.7047 24.3798C28.7075 24.3877 28.7106 24.3955 28.714 24.4032C28.7191 24.4148 28.725 24.4261 28.7315 24.437C28.7352 24.4437 28.739 24.4504 28.7432 24.4568C28.744 24.4568 28.7447 24.4568 28.7455 24.4568C28.75 24.4624 28.7547 24.4679 28.7595 24.4732C28.7643 24.4792 28.7694 24.485 28.7747 24.4907C28.7769 24.4954 28.7792 24.5 28.7817 24.5047C28.7832 24.5047 28.7848 24.5047 28.7863 24.5047C28.7931 24.5104 28.8001 24.5158 28.8073 24.521C28.8097 24.521 28.812 24.521 28.8143 24.521C28.8219 24.5268 28.8297 24.5322 28.8377 24.5373C28.8866 24.568 28.9433 24.5842 29.001 24.584H30.2178C30.2991 24.584 30.377 24.5517 30.4344 24.4943C30.4918 24.4369 30.5241 24.359 30.5241 24.2777C30.5241 24.1965 30.4918 24.1186 30.4344 24.0612C30.377 24.0037 30.2991 23.9715 30.2178 23.9715H29.3032V21.833C29.3037 21.7921 29.2959 21.7514 29.2804 21.7136C29.2649 21.6757 29.2419 21.6413 29.2129 21.6125C29.1838 21.5836 29.1493 21.5609 29.1113 21.5457C29.0733 21.5305 29.0326 21.523 28.9917 21.5238ZM24.0648 21.525C24.0517 21.5295 24.0388 21.535 24.0263 21.5413C23.7965 21.5586 23.5815 21.6619 23.4244 21.8305C23.2672 21.9991 23.1793 22.2208 23.1782 22.4513C23.1796 22.69 23.2735 22.9188 23.4402 23.0896C23.6069 23.2604 23.8333 23.3599 24.0718 23.3672C24.0757 23.3672 24.0796 23.3672 24.0835 23.3672H24.0858C24.0917 23.3673 24.0975 23.3673 24.1033 23.3672C24.2783 23.3672 24.409 23.5002 24.409 23.674C24.409 23.849 24.2783 23.9797 24.1033 23.9797H23.4908C23.4492 23.9771 23.4075 23.9831 23.3682 23.9972C23.329 24.0114 23.293 24.0334 23.2626 24.062C23.2322 24.0906 23.208 24.1251 23.1914 24.1634C23.1749 24.2017 23.1663 24.243 23.1663 24.2847C23.1663 24.3265 23.1749 24.3678 23.1914 24.4061C23.208 24.4444 23.2322 24.4789 23.2626 24.5074C23.293 24.536 23.329 24.5581 23.3682 24.5722C23.4075 24.5864 23.4492 24.5924 23.4908 24.5898H24.1033C24.1247 24.5921 24.1462 24.5921 24.1675 24.5898C24.3983 24.5739 24.6147 24.4715 24.7732 24.303C24.9318 24.1345 25.0209 23.9124 25.0227 23.681C25.0213 23.466 24.9449 23.2583 24.8066 23.0936C24.6684 22.929 24.477 22.8177 24.2655 22.7792C24.2332 22.7681 24.1993 22.7626 24.1652 22.7628H24.1185C24.1135 22.7627 24.1084 22.7627 24.1033 22.7628C24.1006 22.7628 24.0979 22.7628 24.0952 22.7628C24.0547 22.7639 24.0145 22.7568 23.9769 22.7418C23.9393 22.7269 23.9051 22.7044 23.8765 22.6758C23.8479 22.6472 23.8254 22.613 23.8105 22.5754C23.7955 22.5378 23.7884 22.4976 23.7895 22.4572C23.7895 22.2822 23.9202 22.1527 24.0952 22.1527H24.7077C24.7891 22.1527 24.8671 22.1203 24.9246 22.0628C24.9822 22.0052 25.0145 21.9272 25.0145 21.8458C25.0145 21.7644 24.9822 21.6864 24.9246 21.6289C24.8671 21.5713 24.7891 21.539 24.7077 21.539H24.0952C24.0851 21.5385 24.075 21.5385 24.0648 21.539V21.525ZM26.8298 21.525C26.7721 21.53 26.7171 21.5513 26.671 21.5864C26.6249 21.6215 26.5898 21.669 26.5697 21.7233L25.6515 24.171C25.6279 24.2459 25.6339 24.3271 25.6683 24.3978C25.7028 24.4684 25.763 24.5232 25.8367 24.5507C25.9103 24.5782 25.9917 24.5765 26.064 24.5457C26.1364 24.515 26.1942 24.4577 26.2255 24.3857L26.3772 23.975H27.3327L27.4843 24.3857C27.5128 24.4619 27.5704 24.5238 27.6445 24.5576C27.7185 24.5914 27.803 24.5944 27.8793 24.5659C27.9555 24.5374 28.0174 24.4798 28.0512 24.4058C28.085 24.3317 28.088 24.2473 28.0595 24.171L27.1413 21.7233C27.1197 21.6657 27.0812 21.6159 27.0308 21.5805C26.9805 21.5451 26.9206 21.5258 26.859 21.525C26.8489 21.5245 26.8388 21.5245 26.8287 21.525H26.8298ZM34.4715 21.525C34.4583 21.5295 34.4455 21.535 34.433 21.5413C34.2033 21.5597 33.9889 21.6634 33.8319 21.8321C33.6749 22.0007 33.5867 22.2221 33.5848 22.4525C33.5848 22.9483 33.9862 23.3532 34.4785 23.3672C34.4824 23.3672 34.4863 23.3672 34.4902 23.3672H34.4925C34.4983 23.3681 34.5042 23.3689 34.51 23.3695C34.685 23.3695 34.8157 23.5002 34.8157 23.674C34.8157 23.849 34.685 23.9797 34.51 23.9797H33.8975C33.8163 23.9797 33.7384 24.0119 33.681 24.0693C33.6235 24.1268 33.5913 24.2047 33.5913 24.2859C33.5913 24.3671 33.6235 24.445 33.681 24.5025C33.7384 24.5599 33.8163 24.5922 33.8975 24.5922H34.51C34.5313 24.5944 34.5529 24.5944 34.5742 24.5922C34.8049 24.5763 35.0211 24.4738 35.1795 24.3053C35.3378 24.1367 35.4267 23.9146 35.4282 23.6833C35.4268 23.4685 35.3506 23.2609 35.2126 23.0963C35.0746 22.9316 34.8835 22.8203 34.6722 22.7815C34.6399 22.7705 34.606 22.765 34.5718 22.7652H34.5252C34.5201 22.765 34.5151 22.765 34.51 22.7652C34.5073 22.7651 34.5046 22.7651 34.5018 22.7652C34.4614 22.7663 34.4212 22.7591 34.3836 22.7442C34.346 22.7292 34.3118 22.7067 34.2832 22.6781C34.2546 22.6495 34.2321 22.6154 34.2172 22.5778C34.2022 22.5402 34.1951 22.4999 34.1962 22.4595C34.1962 22.2845 34.3268 22.155 34.5018 22.155H35.1143C35.1957 22.155 35.2738 22.1227 35.3313 22.0651C35.3889 22.0076 35.4212 21.9295 35.4212 21.8482C35.4212 21.7668 35.3889 21.6887 35.3313 21.6312C35.2738 21.5736 35.1957 21.5413 35.1143 21.5413H34.5018C34.4917 21.5408 34.4816 21.5408 34.4715 21.5413V21.525ZM26.8543 22.7022L27.104 23.3637H26.6093L26.8543 22.7022ZM34.097 27.3618C34.0648 27.3649 34.0328 27.3704 34.0013 27.3782H32.5593C32.3816 27.3782 32.2111 27.4488 32.0854 27.5745C31.9597 27.7002 31.8891 27.8706 31.8891 28.0484C31.8891 28.2262 31.9597 28.3966 32.0854 28.5223C32.2111 28.648 32.3816 28.7187 32.5593 28.7187H32.9537L31.5233 31.1021L29.4315 29.6368C29.293 29.5398 29.123 29.4987 28.9555 29.5219C28.788 29.545 28.6355 29.6307 28.5285 29.7617L25.8498 33.0458C25.7898 33.1133 25.7441 33.1922 25.7154 33.2778C25.6866 33.3634 25.6755 33.4539 25.6826 33.5439C25.6898 33.6339 25.7151 33.7215 25.7569 33.8015C25.7988 33.8815 25.8564 33.9522 25.9263 34.0093C25.9962 34.0665 26.077 34.1089 26.1637 34.1341C26.2504 34.1592 26.3413 34.1666 26.4309 34.1557C26.5206 34.1448 26.6071 34.1159 26.6853 34.0707C26.7634 34.0256 26.8317 33.965 26.8858 33.8928L29.1737 31.0928L31.3437 32.6118C31.419 32.6646 31.5044 32.7014 31.5945 32.7197C31.6847 32.7381 31.7777 32.7377 31.8676 32.7185C31.9576 32.6994 32.0427 32.6619 32.1175 32.6084C32.1924 32.5549 32.2554 32.4866 32.3027 32.4077L33.8998 29.7453V30.058C33.8998 30.1459 33.9172 30.233 33.9508 30.3143C33.9845 30.3955 34.0338 30.4693 34.096 30.5315C34.1582 30.5937 34.232 30.643 34.3132 30.6767C34.3945 30.7103 34.4816 30.7277 34.5695 30.7277C34.6575 30.7277 34.7445 30.7103 34.8258 30.6767C34.907 30.643 34.9809 30.5937 35.043 30.5315C35.1052 30.4693 35.1546 30.3955 35.1882 30.3143C35.2219 30.233 35.2392 30.1459 35.2392 30.058V28.0478C35.2392 27.8702 35.1686 27.6999 35.043 27.5743C34.9175 27.4487 34.7471 27.3782 34.5695 27.3782H34.2965C34.2525 27.3682 34.2075 27.3627 34.1623 27.3618C34.1402 27.3607 34.1192 27.3607 34.097 27.3618ZM23.8385 28.6918C23.6613 28.6946 23.4924 28.7675 23.3689 28.8945C23.2453 29.0216 23.1772 29.1924 23.1793 29.3697V40.0913C23.1793 40.1794 23.1967 40.2665 23.2304 40.3479C23.2642 40.4292 23.3136 40.5031 23.3759 40.5653C23.4382 40.6275 23.5122 40.6768 23.5936 40.7103C23.6749 40.7439 23.7621 40.7611 23.8502 40.761H37.24C37.4178 40.761 37.5883 40.6904 37.714 40.5647C37.8397 40.439 37.9103 40.2685 37.9103 40.0907C37.9103 39.913 37.8397 39.7425 37.714 39.6168C37.5883 39.4911 37.4178 39.4205 37.24 39.4205H35.2485V32.0495C35.2498 31.96 35.2331 31.8711 35.1994 31.7882C35.1657 31.7052 35.1157 31.6299 35.0524 31.5666C34.9891 31.5033 34.9138 31.4533 34.8308 31.4196C34.7479 31.3859 34.659 31.3692 34.5695 31.3705C34.4816 31.3717 34.3947 31.3902 34.3139 31.425C34.2332 31.4598 34.16 31.5102 34.0987 31.5732C34.0374 31.6363 33.9891 31.7108 33.9566 31.7925C33.924 31.8742 33.9079 31.9615 33.9092 32.0495V39.4205H32.5687V34.7305C32.5701 34.6407 32.5534 34.5515 32.5197 34.4683C32.4859 34.385 32.4358 34.3094 32.3722 34.2459C32.3087 34.1825 32.233 34.1325 32.1497 34.0989C32.0664 34.0652 31.9772 34.0487 31.8873 34.0503C31.7994 34.0518 31.7126 34.0707 31.632 34.1057C31.5513 34.1408 31.4783 34.1914 31.4172 34.2547C31.3561 34.3179 31.3081 34.3926 31.2758 34.4745C31.2436 34.5563 31.2278 34.6437 31.2293 34.7316V39.4216H29.8877V33.6222C29.8889 33.5324 29.8722 33.4434 29.8383 33.3603C29.8045 33.2772 29.7543 33.2017 29.6908 33.1384C29.6272 33.075 29.5516 33.0251 29.4684 32.9916C29.3852 32.958 29.2961 32.9416 29.2063 32.9432C29.0291 32.9462 28.8604 33.0194 28.737 33.1467C28.6137 33.274 28.5459 33.4449 28.5483 33.6222V39.4205H27.2067V36.0512C27.2079 35.9616 27.1912 35.8728 27.1576 35.7898C27.1239 35.7069 27.0739 35.6315 27.0106 35.5682C26.9473 35.5049 26.872 35.455 26.789 35.4213C26.7061 35.3876 26.6172 35.3709 26.5277 35.3722C26.4396 35.3732 26.3527 35.3916 26.2718 35.4263C26.1908 35.4611 26.1176 35.5114 26.0561 35.5745C25.9947 35.6375 25.9463 35.7121 25.9137 35.7939C25.8811 35.8757 25.8649 35.9631 25.8662 36.0512V39.4205H24.5187V29.3697C24.5199 29.2799 24.5032 29.1909 24.4693 29.1078C24.4355 29.0247 24.3853 28.9492 24.3218 28.8859C24.2582 28.8225 24.1826 28.7726 24.0994 28.7391C24.0162 28.7056 23.9271 28.6891 23.8373 28.6907L23.8385 28.6918ZM40.1602 29.6637V29.6672C40.092 29.6682 40.0246 29.6827 39.962 29.7099C39.8994 29.7371 39.8428 29.7763 39.7954 29.8254C39.7481 29.8746 39.7109 29.9325 39.686 29.9961C39.6611 30.0596 39.649 30.1274 39.6503 30.1957V30.6472C38.633 30.8607 37.8362 31.6855 37.8362 32.7203C37.8362 33.9068 38.8838 34.8133 40.1112 34.8425C40.1298 34.8425 40.1497 34.8541 40.1695 34.8541C40.9267 34.8541 41.461 35.3675 41.461 35.9473C41.461 36.5236 40.9313 37.0323 40.1812 37.0382C40.175 37.038 40.1687 37.038 40.1625 37.0382H40.1602C40.1594 37.0382 40.1586 37.0382 40.1578 37.0382C39.4065 37.0382 38.8733 36.5236 38.8733 35.9473C38.8733 35.8098 38.8187 35.6779 38.7215 35.5806C38.6242 35.4834 38.4923 35.4287 38.3548 35.4287C38.2172 35.4287 38.0853 35.4834 37.9881 35.5806C37.8908 35.6779 37.8362 35.8098 37.8362 35.9473C37.8362 36.967 38.6493 37.6962 39.6503 37.9132V38.479C39.6503 38.6164 39.7049 38.7481 39.8021 38.8453C39.8992 38.9424 40.031 38.997 40.1683 38.997C40.3057 38.997 40.4375 38.9424 40.5346 38.8453C40.6318 38.7481 40.6863 38.6164 40.6863 38.479V37.9132C41.6873 37.6962 42.4982 36.9681 42.4982 35.9473C42.4982 34.8717 41.5963 34.1203 40.523 33.9488C40.4961 33.9252 40.4667 33.9045 40.4355 33.887C40.4252 33.8808 40.4147 33.875 40.404 33.8695C40.3986 33.8655 40.3932 33.8616 40.3877 33.8578C40.3773 33.8528 40.3668 33.8481 40.3562 33.8438C40.3508 33.839 40.3454 33.8344 40.3398 33.8298C40.3287 33.8255 40.3174 33.8216 40.306 33.8182C40.3013 33.8181 40.2967 33.8181 40.292 33.8182C40.2805 33.8138 40.2688 33.81 40.257 33.8065C40.2512 33.8064 40.2453 33.8064 40.2395 33.8065C40.2391 33.8065 40.2399 33.8065 40.2395 33.8065C40.2228 33.8057 40.2049 33.8057 40.1882 33.8065C40.1812 33.8063 40.1742 33.8063 40.1672 33.8065C39.41 33.8065 38.8722 33.2955 38.8722 32.7157C38.8722 32.144 39.3983 31.64 40.1403 31.6272C40.1598 31.6282 40.1793 31.6282 40.1987 31.6272C40.9383 31.6423 41.461 32.1428 41.461 32.7133C41.461 32.8509 41.5156 32.9828 41.6129 33.08C41.7102 33.1773 41.8421 33.2319 41.9796 33.2319C42.1171 33.2319 42.249 33.1773 42.3463 33.08C42.4435 32.9828 42.4982 32.8509 42.4982 32.7133C42.4982 31.6797 41.7037 30.8537 40.6863 30.6402V30.1887C40.6873 30.1194 40.6744 30.0508 40.6483 29.9866C40.6223 29.9225 40.5836 29.8643 40.5347 29.8153C40.4857 29.7664 40.4275 29.7277 40.3634 29.7017C40.2992 29.6756 40.2294 29.6627 40.1602 29.6637Z" fill="#76BD43"/>
</svg>
