<svg width="97" height="96" viewBox="0 0 97 96" fill="none" xmlns="http://www.w3.org/2000/svg">
<rect x="0.666748" width="96" height="96" rx="48" fill="#77BE43" fill-opacity="0.15"/>
<path d="M67.8092 60.1534C67.8092 60.8446 67.6556 61.555 67.3292 62.2462C67.0028 62.9374 66.5804 63.5902 66.0236 64.2046C65.0828 65.2414 64.046 65.9902 62.8748 66.4702C61.7228 66.9502 60.4748 67.1998 59.1308 67.1998C57.1724 67.1998 55.0796 66.739 52.8716 65.7982C50.6636 64.8574 48.4556 63.5902 46.2668 61.9966C44.0588 60.3838 41.966 58.5982 39.9692 56.6206C37.9916 54.6238 36.206 52.531 34.6124 50.3422C33.038 48.1534 31.7708 45.9646 30.8492 43.795C29.9276 41.6062 29.4668 39.5134 29.4668 37.5166C29.4668 36.211 29.6972 34.963 30.158 33.811C30.6188 32.6398 31.3484 31.5646 32.366 30.6046C33.5948 29.395 34.9388 28.7998 36.3596 28.7998C36.8972 28.7998 37.4348 28.915 37.9148 29.1454C38.414 29.3758 38.8556 29.7214 39.2012 30.2206L43.6556 36.499C44.0012 36.979 44.2508 37.4206 44.4236 37.843C44.5964 38.2462 44.6924 38.6494 44.6924 39.0142C44.6924 39.475 44.558 39.9358 44.2892 40.3774C44.0396 40.819 43.6748 41.2798 43.214 41.7406L41.7548 43.2574C41.5436 43.4686 41.4476 43.7182 41.4476 44.0254C41.4476 44.179 41.4668 44.3134 41.5052 44.467C41.5628 44.6206 41.6204 44.7358 41.6588 44.851C42.0044 45.4846 42.5996 46.3102 43.4444 47.3086C44.3084 48.307 45.23 49.3246 46.2284 50.3422C47.2652 51.3598 48.2636 52.3006 49.2812 53.1646C50.2796 54.0094 51.1052 54.5854 51.758 54.931C51.854 54.9694 51.9692 55.027 52.1036 55.0846C52.2572 55.1422 52.4108 55.1614 52.5836 55.1614C52.91 55.1614 53.1596 55.0462 53.3708 54.835L54.83 53.395C55.31 52.915 55.7708 52.5502 56.2124 52.3198C56.654 52.051 57.0956 51.9166 57.5756 51.9166C57.9404 51.9166 58.3244 51.9934 58.7468 52.1662C59.1692 52.339 59.6108 52.5886 60.0908 52.915L66.446 57.427C66.9452 57.7726 67.2908 58.1758 67.502 58.6558C67.694 59.1358 67.8092 59.6158 67.8092 60.1534Z" stroke="#77BE43" stroke-width="2.88" stroke-miterlimit="10"/>
<path d="M54.427 36.422L58.267 40.262L65.947 32.582" stroke="#77BE43" stroke-width="2.88" stroke-linecap="round" stroke-linejoin="round"/>
</svg>
