<svg width="65" height="64" viewBox="0 0 65 64" fill="none" xmlns="http://www.w3.org/2000/svg">
<rect x="0.800781" width="64" height="64" rx="32" fill="#76BD43" fill-opacity="0.15"/>
<g clip-path="url(#clip0_0_740)">
<path fill-rule="evenodd" clip-rule="evenodd" d="M32.8051 14.4992C32.7256 14.4985 32.6469 14.5141 32.5737 14.545C32.5004 14.5759 32.4343 14.6215 32.3793 14.6788L18.9626 28.6788C18.8835 28.7614 18.8304 28.8653 18.8099 28.9778C18.7893 29.0903 18.8023 29.2063 18.8472 29.3114C18.8921 29.4166 18.9669 29.5062 19.0623 29.5693C19.1577 29.6323 19.2695 29.6658 19.3838 29.6658H21.1338V38.8242L20.5505 37.9492L18.8005 40.5742V42.4992H16.4671V40.5742L14.7171 37.9492L14.1338 38.8242V40.9242L14.1408 40.9125L14.6191 40.1973L14.7171 40.0515L15.3005 40.9265V48.3325H14.1338V49.4992H16.4671V48.3325H18.8005V49.4992H22.3005V48.3325H24.6338V49.4992H28.1338V45.9992H37.4671V49.4992H40.9671V48.3325H43.3005V49.4992H46.8005V48.3325H49.1338V49.4992H51.4671V48.3325H50.3005V40.9265L50.8838 40.0515L50.9818 40.1973L51.4601 40.9137L51.4671 40.9253V38.8242L50.8838 37.9492L49.1338 40.5742V42.4992H46.8005V40.5742L45.0505 37.9492L44.4671 38.8242V29.6658H46.2171C46.3314 29.6658 46.4433 29.6323 46.5387 29.5693C46.6341 29.5062 46.7088 29.4166 46.7537 29.3114C46.7986 29.2063 46.8116 29.0903 46.791 28.9778C46.7705 28.8653 46.7174 28.7614 46.6383 28.6788L44.4671 26.4143C44.4672 26.4097 44.4672 26.405 44.4671 26.4003V19.7492C44.4671 19.5945 44.4057 19.4461 44.2963 19.3367C44.1869 19.2273 44.0385 19.1658 43.8838 19.1658H41.5505C41.3957 19.1658 41.2474 19.2273 41.138 19.3367C41.0286 19.4461 40.9671 19.5945 40.9671 19.7492V22.7615L33.2216 14.6788C33.1677 14.6226 33.1031 14.5777 33.0316 14.5469C32.96 14.516 32.883 14.4998 32.8051 14.4992ZM32.8005 15.9283L44.8475 28.4992H20.7535L32.8005 15.9283ZM42.1338 20.3325H43.3005V25.1952L42.1198 23.9643C42.1294 23.9211 42.1341 23.8768 42.1338 23.8325V20.3325ZM22.3005 29.6658H43.3005V42.4992H40.9671V40.5742L39.2171 37.9492L37.4671 40.5742V44.8325H36.3005V34.9158C36.3005 34.7611 36.239 34.6127 36.1296 34.5034C36.0202 34.394 35.8718 34.3325 35.7171 34.3325H29.8838C29.7291 34.3325 29.5807 34.394 29.4713 34.5034C29.3619 34.6127 29.3005 34.7611 29.3005 34.9158V44.8325H28.1338V40.5742L26.3838 37.9492L24.6338 40.5742V42.4992H22.3005V29.6658ZM30.4671 35.4992H35.1338V44.8325H30.4671V35.4992ZM20.5505 40.0515L21.1338 40.9265V48.3325H19.9671V40.9242L20.5505 40.0515ZM26.3838 40.0515L26.9671 40.9265V48.3325H25.8005V40.9242L26.3838 40.0515ZM39.2171 40.0515L39.8005 40.9265V48.3325H38.6338V40.9242L39.2171 40.0515ZM45.0505 40.0515L45.6338 40.9265V48.3325H44.4671V40.9242L45.0505 40.0515ZM16.4671 43.6658H18.8005V44.8325H16.4671V43.6658ZM22.3005 43.6658H24.6338V44.8325H22.3005V43.6658ZM40.9671 43.6658H43.3005V44.8325H40.9671V43.6658ZM46.8005 43.6658H49.1338V44.8325H46.8005V43.6658ZM16.4671 45.9992H18.8005V47.1658H16.4671V45.9992ZM22.3005 45.9992H24.6338V47.1658H22.3005V45.9992ZM40.9671 45.9992H43.3005V47.1658H40.9671V45.9992ZM46.8005 45.9992H49.1338V47.1658H46.8005V45.9992Z" fill="#76BD43"/>
</g>
<defs>
<clipPath id="clip0_0_740">
<rect width="37.3333" height="37.3333" fill="white" transform="translate(14.1338 13.3331)"/>
</clipPath>
</defs>
</svg>
