<svg width="65" height="64" viewBox="0 0 65 64" fill="none" xmlns="http://www.w3.org/2000/svg">
<rect x="0.5" width="64" height="64" rx="32" fill="#76BD43" fill-opacity="0.15"/>
<g clip-path="url(#clip0_0_7097)">
<path fill-rule="evenodd" clip-rule="evenodd" d="M32.5048 14.4993C32.4254 14.4986 32.3466 14.5143 32.2734 14.5451C32.2001 14.576 32.134 14.6216 32.079 14.679L18.6623 28.679C18.5832 28.7615 18.5301 28.8654 18.5096 28.9779C18.4891 29.0904 18.502 29.2064 18.5469 29.3116C18.5918 29.4167 18.6666 29.5064 18.762 29.5694C18.8574 29.6324 18.9692 29.666 19.0835 29.666H20.8335V38.8243L20.2502 37.9493L18.5002 40.5743V42.4993H16.1668V40.5743L14.4168 37.9493L13.8335 38.8243V40.9243L13.8405 40.9126L14.3188 40.1975L14.4168 40.0516L15.0002 40.9266V48.3326H13.8335V49.4993H16.1668V48.3326H18.5002V49.4993H22.0002V48.3326H24.3335V49.4993H27.8335V45.9993H37.1668V49.4993H40.6668V48.3326H43.0002V49.4993H46.5002V48.3326H48.8335V49.4993H51.1668V48.3326H50.0002V40.9266L50.5835 40.0516L50.6815 40.1975L51.1598 40.9138L51.1668 40.9255V38.8243L50.5835 37.9493L48.8335 40.5743V42.4993H46.5002V40.5743L44.7502 37.9493L44.1668 38.8243V29.666H45.9168C46.0312 29.666 46.143 29.6324 46.2384 29.5694C46.3338 29.5064 46.4085 29.4167 46.4534 29.3116C46.4983 29.2064 46.5113 29.0904 46.4907 28.9779C46.4702 28.8654 46.4171 28.7615 46.338 28.679L44.1668 26.4145C44.1669 26.4098 44.1669 26.4051 44.1668 26.4005V19.7493C44.1668 19.5946 44.1054 19.4462 43.996 19.3368C43.8866 19.2274 43.7382 19.166 43.5835 19.166H41.2502C41.0955 19.166 40.9471 19.2274 40.8377 19.3368C40.7283 19.4462 40.6668 19.5946 40.6668 19.7493V22.7616L32.9213 14.679C32.8674 14.6227 32.8028 14.5778 32.7313 14.547C32.6597 14.5161 32.5827 14.4999 32.5048 14.4993ZM32.5002 15.9285L44.5472 28.4993H20.4532L32.5002 15.9285ZM41.8335 20.3326H43.0002V25.1953L41.8195 23.9645C41.8292 23.9212 41.8339 23.877 41.8335 23.8326V20.3326ZM22.0002 29.666H43.0002V42.4993H40.6668V40.5743L38.9168 37.9493L37.1668 40.5743V44.8326H36.0002V34.916C36.0002 34.7612 35.9387 34.6129 35.8293 34.5035C35.7199 34.3941 35.5715 34.3326 35.4168 34.3326H29.5835C29.4288 34.3326 29.2804 34.3941 29.171 34.5035C29.0616 34.6129 29.0002 34.7612 29.0002 34.916V44.8326H27.8335V40.5743L26.0835 37.9493L24.3335 40.5743V42.4993H22.0002V29.666ZM30.1668 35.4993H34.8335V44.8326H30.1668V35.4993ZM20.2502 40.0516L20.8335 40.9266V48.3326H19.6668V40.9243L20.2502 40.0516ZM26.0835 40.0516L26.6668 40.9266V48.3326H25.5002V40.9243L26.0835 40.0516ZM38.9168 40.0516L39.5002 40.9266V48.3326H38.3335V40.9243L38.9168 40.0516ZM44.7502 40.0516L45.3335 40.9266V48.3326H44.1668V40.9243L44.7502 40.0516ZM16.1668 43.666H18.5002V44.8326H16.1668V43.666ZM22.0002 43.666H24.3335V44.8326H22.0002V43.666ZM40.6668 43.666H43.0002V44.8326H40.6668V43.666ZM46.5002 43.666H48.8335V44.8326H46.5002V43.666ZM16.1668 45.9993H18.5002V47.166H16.1668V45.9993ZM22.0002 45.9993H24.3335V47.166H22.0002V45.9993ZM40.6668 45.9993H43.0002V47.166H40.6668V45.9993ZM46.5002 45.9993H48.8335V47.166H46.5002V45.9993Z" fill="#76BD43"/>
</g>
<defs>
<clipPath id="clip0_0_7097">
<rect width="37.3333" height="37.3333" fill="white" transform="translate(13.8335 13.3333)"/>
</clipPath>
</defs>
</svg>
