<svg width="96" height="96" viewBox="0 0 96 96" fill="none" xmlns="http://www.w3.org/2000/svg">
<rect width="96" height="96" rx="48" fill="white"/>
<rect width="96" height="96" rx="48" fill="#F9B938" fill-opacity="0.05"/>
<g clip-path="url(#clip0_0_6567)">
<path d="M30.9104 52.9993C30.9104 49.9985 33.3127 47.5609 36.2608 47.5609C39.2087 47.5609 41.6113 49.9985 41.6113 52.9993C41.6113 56.0617 39.2175 59.7665 36.2608 59.7665C33.2951 59.7665 30.9104 56.0617 30.9104 52.9993ZM45.5446 67.0529C45.6063 67.4576 45.6415 67.8536 45.6415 68.2409C45.6415 68.7248 45.2456 69.1209 44.7615 69.1209H27.7599C27.2761 69.1209 26.8799 68.7248 26.8799 68.2409C26.8799 67.8536 26.9063 67.4488 26.968 67.0529C27.5313 63.2336 30.8751 60.356 34.7473 60.356H37.7656C41.6375 60.356 44.9815 63.2336 45.5446 67.0529ZM54.3887 52.9993C54.3887 49.9985 56.7913 47.5609 59.7392 47.5609C62.6873 47.5609 65.0896 49.9985 65.0896 52.9993C65.0896 56.0617 62.7047 59.7665 59.7392 59.7665C56.7737 59.7665 54.3887 56.0617 54.3887 52.9993ZM69.1199 68.2409C69.1199 68.7248 68.7239 69.1209 68.2399 69.1209H51.2384C50.7544 69.1209 50.3584 68.7248 50.3584 68.2409C50.3584 67.8536 50.3937 67.4488 50.4551 67.0529C51.0096 63.2336 54.3537 60.356 58.2344 60.356H61.2439C65.1161 60.356 68.4599 63.2336 69.0232 67.0529C69.0847 67.4488 69.1199 67.8536 69.1199 68.2409ZM50.7015 28.9488V30.2953H44.8937C42.7904 30.2953 41.0744 32.0112 41.0744 34.1232V40.1512L38.232 42.4393C37.959 42.6668 37.5757 42.6833 37.2992 42.5448C36.9999 42.4041 36.8063 42.096 36.8063 41.7529V39.016H36.3839C35.2487 39.016 34.3246 38.0832 34.3246 36.9481V28.9488C34.3246 27.8048 35.2487 26.8809 36.3839 26.8809H48.6423C49.7775 26.8809 50.7015 27.8048 50.7015 28.9488Z" fill="#F9B938"/>
<path d="M57.1438 32.0547H44.8942C43.759 32.0547 42.835 32.9787 42.835 34.1227V42.1218C42.835 43.2571 43.759 44.1899 44.8942 44.1899H51.0542L55.2957 47.613C55.5579 47.8316 55.9439 47.8589 56.2285 47.7275C56.5366 47.5779 56.7302 47.2699 56.7302 46.9267V44.1899H57.1438C58.2878 44.1899 59.2119 43.2571 59.2119 42.1218V34.1227C59.2119 32.9787 58.2878 32.0547 57.1438 32.0547ZM47.9304 39.0425H46.7703C46.2838 39.0425 45.8903 38.6485 45.8903 38.1625C45.8903 37.6765 46.2838 37.2825 46.7703 37.2825H47.9304C48.4168 37.2825 48.8104 37.6765 48.8104 38.1625C48.8104 38.6485 48.4168 39.0425 47.9304 39.0425ZM51.6025 39.0425H50.4424C49.956 39.0425 49.5624 38.6485 49.5624 38.1625C49.5624 37.6765 49.956 37.2825 50.4424 37.2825H51.6025C52.0889 37.2825 52.4825 37.6765 52.4825 38.1625C52.4825 38.6485 52.0889 39.0425 51.6025 39.0425ZM55.2738 39.0425H54.1136C53.6272 39.0425 53.2336 38.6485 53.2336 38.1625C53.2336 37.6765 53.6272 37.2825 54.1136 37.2825H55.2738C55.7602 37.2825 56.1538 37.6765 56.1538 38.1625C56.1538 38.6485 55.7602 39.0425 55.2738 39.0425Z" fill="#FC6559"/>
</g>
<defs>
<clipPath id="clip0_0_6567">
<rect x="26" y="26" width="44" height="44" fill="white"/>
</clipPath>
</defs>
</svg>
