<svg width="97" height="96" viewBox="0 0 97 96" fill="none" xmlns="http://www.w3.org/2000/svg">
<rect x="0.333252" width="96" height="96" rx="48" fill="#77BE43" fill-opacity="0.15"/>
<path d="M32.9519 53.1079L30.0335 50.1895C28.8431 48.9991 28.8431 47.0407 30.0335 45.8503L32.9519 42.9318C33.4511 42.4326 33.8543 41.4534 33.8543 40.7622V36.6342C33.8543 34.9446 35.2367 33.5622 36.9263 33.5622H41.0543C41.7455 33.5622 42.7247 33.1591 43.2239 32.6599L46.1423 29.7414C47.3327 28.551 49.2911 28.551 50.4815 29.7414L53.4 32.6599C53.8992 33.1591 54.8783 33.5622 55.5695 33.5622H59.6976C61.3872 33.5622 62.7695 34.9446 62.7695 36.6342V40.7622C62.7695 41.4534 63.1727 42.4326 63.6719 42.9318L66.5904 45.8503C67.7808 47.0407 67.7808 48.9991 66.5904 50.1895L63.6719 53.1079C63.1727 53.6071 62.7695 54.5863 62.7695 55.2775V59.4053C62.7695 61.0949 61.3872 62.4775 59.6976 62.4775H55.5695C54.8783 62.4775 53.8992 62.8807 53.4 63.3799L50.4815 66.2983C49.2911 67.4887 47.3327 67.4887 46.1423 66.2983L43.2239 63.3799C42.7247 62.8807 41.7455 62.4775 41.0543 62.4775H36.9263C35.2367 62.4775 33.8543 61.0949 33.8543 59.4053V55.2775C33.8543 54.5671 33.4511 53.5879 32.9519 53.1079Z" stroke="#77BE43" stroke-width="2.88" stroke-linecap="round" stroke-linejoin="round"/>
<path d="M42.5734 53.7597L54.0934 42.2397" stroke="#77BE43" stroke-width="2.88" stroke-linecap="round" stroke-linejoin="round"/>
<path d="M53.1224 52.7998H53.1397" stroke="#77BE43" stroke-width="3.84" stroke-linecap="round" stroke-linejoin="round"/>
<path d="M43.5228 43.1997H43.5401" stroke="#77BE43" stroke-width="3.84" stroke-linecap="round" stroke-linejoin="round"/>
</svg>
