<svg width="65" height="64" viewBox="0 0 65 64" fill="none" xmlns="http://www.w3.org/2000/svg">
<rect x="0.600586" width="64" height="64" rx="32" fill="#76BD43" fill-opacity="0.15"/>
<g clip-path="url(#clip0_0_747)">
<path d="M32.0166 38.9997H20.3499C20.1952 38.9997 20.0469 39.0611 19.9375 39.1705C19.8281 39.2799 19.7666 39.4283 19.7666 39.583C19.7666 39.7377 19.8281 39.8861 19.9375 39.9955C20.0469 40.1049 20.1952 40.1663 20.3499 40.1663H32.0166C32.1713 40.1663 32.3197 40.1049 32.4291 39.9955C32.5385 39.8861 32.5999 39.7377 32.5999 39.583C32.5999 39.4283 32.5385 39.2799 32.4291 39.1705C32.3197 39.0611 32.1713 38.9997 32.0166 38.9997ZM43.4126 41.0203L40.5251 43.9078L39.2873 42.67C39.1772 42.5637 39.0299 42.505 38.8769 42.5063C38.724 42.5076 38.5777 42.569 38.4695 42.6771C38.3614 42.7853 38.3 42.9316 38.2987 43.0845C38.2974 43.2375 38.3562 43.3848 38.4624 43.4948L40.1121 45.1445C40.2215 45.2539 40.3698 45.3153 40.5245 45.3153C40.6792 45.3153 40.8275 45.2539 40.9369 45.1445L44.2363 41.8452C44.3425 41.7352 44.4013 41.5878 44.4 41.4349C44.3987 41.2819 44.3373 41.1356 44.2292 41.0274C44.121 40.9193 43.9747 40.8579 43.8218 40.8566C43.6688 40.8553 43.5226 40.9141 43.4126 41.0203ZM43.0999 35.712V23.2497C43.0966 23.2245 43.0915 23.1995 43.0848 23.175C43.0818 23.1502 43.0772 23.1256 43.0708 23.1015C43.048 23.0023 42.9993 22.9109 42.9296 22.8367L33.5963 13.5033C33.5219 13.433 33.43 13.3839 33.3303 13.361C33.3084 13.3553 33.2862 13.3511 33.2638 13.3482C33.2373 13.3412 33.2104 13.3361 33.1833 13.333H19.1833C18.4097 13.333 17.6679 13.6403 17.1209 14.1873C16.5739 14.7343 16.2666 15.4761 16.2666 16.2497V47.7497C16.2666 48.5232 16.5739 49.2651 17.1209 49.8121C17.6679 50.3591 18.4097 50.6663 19.1833 50.6663H42.4198C42.5555 50.6644 42.6861 50.6143 42.7884 50.5252C44.4909 50.1977 46.0296 49.2962 47.1477 47.9712C48.2658 46.6462 48.8956 44.9778 48.932 43.2445C48.9685 41.5112 48.4094 39.8178 47.348 38.447C46.2866 37.0761 44.7872 36.1108 43.0999 35.712ZM33.7666 15.3245L41.1084 22.6663H35.5166C35.0525 22.6663 34.6074 22.482 34.2792 22.1538C33.951 21.8256 33.7666 21.3805 33.7666 20.9163V15.3245ZM19.1833 49.4997C18.7191 49.4997 18.274 49.3153 17.9458 48.9871C17.6176 48.6589 17.4333 48.2138 17.4333 47.7497V16.2497C17.4333 15.7855 17.6176 15.3404 17.9458 15.0122C18.274 14.684 18.7191 14.4997 19.1833 14.4997H32.5999V20.9163C32.5999 21.6899 32.9072 22.4318 33.4542 22.9787C34.0012 23.5257 34.7431 23.833 35.5166 23.833H41.9333V35.5288C41.7396 35.5137 41.5471 35.4997 41.3499 35.4997C39.7045 35.4985 38.1034 36.033 36.7887 37.0224C35.474 38.0118 34.5171 39.4023 34.0627 40.9837C33.6083 42.5652 33.6811 44.2515 34.2701 45.7879C34.859 47.3243 35.9322 48.6272 37.3273 49.4997H19.1833ZM41.3499 49.4997C40.0808 49.4997 38.8402 49.1233 37.785 48.4183C36.7298 47.7132 35.9074 46.7111 35.4217 45.5386C34.936 44.3661 34.809 43.0759 35.0566 41.8312C35.3041 40.5865 35.9153 39.4431 36.8127 38.5457C37.7101 37.6484 38.8534 37.0372 40.0981 36.7896C41.3428 36.542 42.633 36.6691 43.8055 37.1548C44.978 37.6404 45.9801 38.4629 46.6852 39.5181C47.3903 40.5733 47.7666 41.8139 47.7666 43.083C47.7644 44.7841 47.0877 46.415 45.8848 47.6179C44.6819 48.8208 43.0511 49.4975 41.3499 49.4997ZM19.7666 32.583C19.7666 32.7377 19.8281 32.8861 19.9375 32.9955C20.0469 33.1049 20.1952 33.1663 20.3499 33.1663H39.0166C39.1713 33.1663 39.3197 33.1049 39.4291 32.9955C39.5385 32.8861 39.5999 32.7377 39.5999 32.583C39.5999 32.4283 39.5385 32.2799 39.4291 32.1705C39.3197 32.0611 39.1713 31.9997 39.0166 31.9997H20.3499C20.1952 31.9997 20.0469 32.0611 19.9375 32.1705C19.8281 32.2799 19.7666 32.4283 19.7666 32.583ZM34.3499 35.4997H20.3499C20.1952 35.4997 20.0469 35.5611 19.9375 35.6705C19.8281 35.7799 19.7666 35.9283 19.7666 36.083C19.7666 36.2377 19.8281 36.3861 19.9375 36.4955C20.0469 36.6049 20.1952 36.6663 20.3499 36.6663H34.3499C34.5046 36.6663 34.653 36.6049 34.7624 36.4955C34.8718 36.3861 34.9333 36.2377 34.9333 36.083C34.9333 35.9283 34.8718 35.7799 34.7624 35.6705C34.653 35.5611 34.5046 35.4997 34.3499 35.4997ZM25.0166 23.833C25.3627 23.833 25.7011 23.7304 25.9888 23.5381C26.2766 23.3458 26.5009 23.0725 26.6334 22.7527C26.7658 22.4329 26.8005 22.0811 26.733 21.7416C26.6655 21.4021 26.4988 21.0903 26.254 20.8456C26.0093 20.6008 25.6975 20.4342 25.358 20.3666C25.0185 20.2991 24.6667 20.3338 24.3469 20.4662C24.0271 20.5987 23.7538 20.823 23.5615 21.1108C23.3692 21.3985 23.2666 21.7369 23.2666 22.083C23.2666 22.5471 23.451 22.9923 23.7792 23.3204C24.1074 23.6486 24.5525 23.833 25.0166 23.833ZM25.0166 21.4997C25.132 21.4997 25.2448 21.5339 25.3407 21.598C25.4366 21.6621 25.5114 21.7532 25.5555 21.8598C25.5997 21.9664 25.6112 22.0837 25.5887 22.1968C25.5662 22.31 25.5107 22.4139 25.4291 22.4955C25.3475 22.5771 25.2436 22.6326 25.1304 22.6551C25.0172 22.6776 24.9 22.6661 24.7934 22.6219C24.6868 22.5778 24.5957 22.503 24.5316 22.4071C24.4675 22.3112 24.4333 22.1984 24.4333 22.083C24.4333 21.9283 24.4947 21.7799 24.6041 21.6705C24.7135 21.5611 24.8619 21.4997 25.0166 21.4997ZM20.3499 43.6663H30.8499C31.0046 43.6663 31.153 43.6049 31.2624 43.4955C31.3718 43.3861 31.4333 43.2377 31.4333 43.083C31.4333 42.9283 31.3718 42.7799 31.2624 42.6705C31.153 42.5611 31.0046 42.4997 30.8499 42.4997H20.3499C20.1952 42.4997 20.0469 42.5611 19.9375 42.6705C19.8281 42.7799 19.7666 42.9283 19.7666 43.083C19.7666 43.2377 19.8281 43.3861 19.9375 43.4955C20.0469 43.6049 20.1952 43.6663 20.3499 43.6663ZM32.0166 45.9997H20.3499C20.1952 45.9997 20.0469 46.0611 19.9375 46.1705C19.8281 46.2799 19.7666 46.4283 19.7666 46.583C19.7666 46.7377 19.8281 46.8861 19.9375 46.9955C20.0469 47.1049 20.1952 47.1663 20.3499 47.1663H32.0166C32.1713 47.1663 32.3197 47.1049 32.4291 46.9955C32.5385 46.8861 32.5999 46.7377 32.5999 46.583C32.5999 46.4283 32.5385 46.2799 32.4291 46.1705C32.3197 46.0611 32.1713 45.9997 32.0166 45.9997ZM20.5098 23.9497C20.5666 24.1575 20.5929 24.3725 20.5879 24.5878C20.5445 25.1185 20.7065 25.6456 21.0406 26.0602C21.4554 26.3939 21.9823 26.5559 22.5129 26.5128L22.6961 26.5233C22.6912 26.5426 22.6873 26.562 22.6844 26.5817V30.315C22.6845 30.4205 22.7132 30.524 22.7674 30.6146C22.8216 30.7051 22.8994 30.7792 22.9924 30.829C23.0855 30.8788 23.1902 30.9024 23.2956 30.8974C23.401 30.8923 23.5031 30.8588 23.5909 30.8003L25.0166 29.8413L26.4434 30.7922C26.539 30.8564 26.6515 30.8909 26.7666 30.8913C26.8628 30.8914 26.9575 30.8673 27.0419 30.8213C27.1349 30.7716 27.2126 30.6976 27.2668 30.6072C27.321 30.5168 27.3498 30.4134 27.3499 30.308V26.5163L27.5203 26.507C28.0509 26.55 28.5778 26.388 28.9926 26.0543C29.3269 25.6415 29.4905 25.1163 29.4499 24.5867C29.4447 24.3713 29.471 24.1563 29.5281 23.9485C29.6309 23.7731 29.7582 23.6132 29.9061 23.4737C30.3216 23.1226 30.5846 22.6241 30.6399 22.083C30.5835 21.5412 30.3187 21.0426 29.9014 20.6923C29.7535 20.5528 29.6262 20.3929 29.5234 20.2175C29.4666 20.0097 29.4403 19.7947 29.4453 19.5793C29.4887 19.0487 29.3267 18.5216 28.9926 18.107C28.5785 17.7716 28.0515 17.6079 27.5203 17.6497C27.3053 17.6554 27.0907 17.6294 26.8833 17.5727C26.7077 17.47 26.5478 17.3427 26.4084 17.1947C26.0573 16.7785 25.5583 16.515 25.0166 16.4597C24.4738 16.5159 23.9742 16.7812 23.6236 17.1993C23.4843 17.3471 23.3249 17.4743 23.1499 17.5773C22.9421 17.634 22.7271 17.66 22.5118 17.6543C21.9812 17.6114 21.4543 17.7734 21.0394 18.107C20.7045 18.5213 20.5412 19.0483 20.5833 19.5793C20.5885 19.7947 20.5622 20.0098 20.5051 20.2175C20.4023 20.3929 20.275 20.5528 20.1271 20.6923C19.7116 21.0434 19.4486 21.5419 19.3933 22.083C19.4498 22.6248 19.7146 23.1234 20.1318 23.4737C20.2798 23.6136 20.407 23.7738 20.5098 23.9497ZM26.1833 29.2172L25.3398 28.656C25.2439 28.5921 25.1313 28.5579 25.016 28.5579C24.9008 28.5579 24.7881 28.5921 24.6923 28.656L23.8488 29.2172V27.172C24.1575 27.4893 24.5735 27.6799 25.0154 27.7063C25.4573 27.6799 25.8734 27.4893 26.1821 27.172L26.1833 29.2172ZM20.9834 21.4892C21.2328 21.2523 21.4375 20.9725 21.5878 20.6632C21.7022 20.3288 21.7571 19.977 21.7499 19.6237C21.7358 19.3876 21.7757 19.1514 21.8666 18.933C22.0854 18.8424 22.322 18.8025 22.5584 18.8163C22.912 18.8228 23.2639 18.7667 23.5979 18.6507C23.9072 18.5003 24.1867 18.2952 24.4228 18.0452C24.6246 17.8562 24.8754 17.6217 25.0178 17.6217C25.1601 17.6217 25.4109 17.855 25.6128 18.0452C25.8491 18.2955 26.129 18.5006 26.4388 18.6507C26.7728 18.7669 27.1247 18.8229 27.4783 18.8163C27.7147 18.8024 27.9513 18.8423 28.1701 18.933C28.2611 19.1518 28.301 19.3884 28.2868 19.6248C28.2803 19.9788 28.3364 20.3311 28.4524 20.6655C28.6027 20.9749 28.8074 21.2546 29.0568 21.4915C29.2458 21.6922 29.4803 21.943 29.4803 22.0853C29.4803 22.2277 29.2469 22.4785 29.0568 22.6792C28.8074 22.916 28.6027 23.1958 28.4524 23.5052C28.3362 23.8396 28.2798 24.1919 28.2856 24.5458C28.2999 24.7823 28.26 25.0189 28.1689 25.2377C27.9501 25.3283 27.7136 25.3682 27.4771 25.3543C27.1236 25.3479 26.7716 25.404 26.4376 25.52C26.1283 25.6703 25.8489 25.8755 25.6128 26.1255C25.4109 26.3145 25.1601 26.549 25.0178 26.549C24.8754 26.549 24.6246 26.3157 24.4228 26.1255C24.1865 25.8752 23.9066 25.67 23.5968 25.52C23.2628 25.4038 22.9108 25.3477 22.5573 25.3543C22.3208 25.3682 22.0843 25.3284 21.8654 25.2377C21.7745 25.0189 21.7346 24.7823 21.7488 24.5458C21.7553 24.1919 21.6992 23.8396 21.5831 23.5052C21.4328 23.1958 21.2281 22.916 20.9788 22.6792C20.7898 22.4785 20.5553 22.2277 20.5553 22.0853C20.5553 21.943 20.7944 21.6898 20.9834 21.4892Z" fill="#76BD43"/>
</g>
<defs>
<clipPath id="clip0_0_747">
<rect width="37.3333" height="37.3333" fill="white" transform="translate(13.9336 13.3331)"/>
</clipPath>
</defs>
</svg>
