<svg width="97" height="96" viewBox="0 0 97 96" fill="none" xmlns="http://www.w3.org/2000/svg">
<rect x="0.666748" width="96" height="96" rx="48" fill="#77BE43" fill-opacity="0.15"/>
<path d="M53.3513 61.5358L56.2697 64.4542L62.1065 58.6174" stroke="#77BE43" stroke-width="2.88" stroke-linecap="round" stroke-linejoin="round"/>
<path d="M48.9744 45.8302C48.7824 45.811 48.552 45.811 48.3408 45.8302C43.7712 45.6766 40.1424 41.9326 40.1424 37.3246C40.1232 32.6206 43.944 28.7998 48.648 28.7998C53.352 28.7998 57.1728 32.6206 57.1728 37.3246C57.1728 41.9326 53.5248 45.6766 48.9744 45.8302Z" stroke="#77BE43" stroke-width="2.88" stroke-linecap="round" stroke-linejoin="round"/>
<path d="M48.6475 66.8352C45.1531 66.8352 41.6779 65.952 39.0283 64.1856C34.3819 61.0752 34.3819 56.0064 39.0283 52.9152C44.3083 49.3824 52.9675 49.3824 58.2475 52.9152" stroke="#77BE43" stroke-width="2.88" stroke-linecap="round" stroke-linejoin="round"/>
</svg>
