<svg width="120" height="120" viewBox="0 0 120 120" fill="none" xmlns="http://www.w3.org/2000/svg">
<rect width="120" height="120" rx="60" fill="white"/>
<rect width="120" height="120" rx="60" fill="#6699FF" fill-opacity="0.05"/>
<path d="M72.0864 41.7538V80.4798C72.0864 81.6447 71.1421 82.5891 69.9772 82.5891H39.5194C38.3545 82.5891 37.4102 81.6447 37.4102 80.4798V41.7538C37.4102 40.5889 38.3545 39.6445 39.5194 39.6445H69.9772C71.1421 39.6445 72.0864 40.5889 72.0864 41.7538Z" fill="#E5E8F9"/>
<path d="M44.8451 43.6812C44.8451 44.5094 44.1737 45.1752 43.3455 45.1752C42.523 45.1752 41.8516 44.5094 41.8516 43.6812C41.8516 42.8531 42.523 42.1816 43.3455 42.1816C44.1737 42.1816 44.8451 42.8531 44.8451 43.6812ZM52.4454 43.6812C52.4454 44.5094 51.7739 45.1752 50.9458 45.1752C50.1232 45.1752 49.4518 44.5094 49.4518 43.6812C49.4518 42.8531 50.1232 42.1816 50.9458 42.1816C51.7739 42.1816 52.4454 42.8531 52.4454 43.6812ZM60.0456 43.6812C60.0456 44.5094 59.3741 45.1752 58.546 45.1752C57.7235 45.1752 57.052 44.5094 57.052 43.6812C57.052 42.8531 57.7235 42.1816 58.546 42.1816C59.3741 42.1816 60.0456 42.8531 60.0456 43.6812ZM67.6458 43.6812C67.6458 44.5094 66.9744 45.1752 66.1462 45.1752C65.3237 45.1752 64.6522 44.5094 64.6522 43.6812C64.6522 42.8531 65.3237 42.1816 66.1462 42.1816C66.9744 42.1816 67.6458 42.8531 67.6458 43.6812ZM62.6323 73.4721H50.196C49.9037 73.4721 49.6666 73.235 49.6666 72.9427C49.6666 72.6504 49.9037 72.4133 50.196 72.4133H62.6323C62.9246 72.4133 63.1618 72.6504 63.1618 72.9427C63.1618 73.235 62.9246 73.4721 62.6323 73.4721ZM62.6323 76.5769H43.3481C43.0558 76.5769 42.8187 76.3398 42.8187 76.0475C42.8187 75.7552 43.0558 75.5181 43.3481 75.5181H62.6323C62.9246 75.5181 63.1618 75.7552 63.1618 76.0475C63.1618 76.3398 62.9246 76.5769 62.6323 76.5769ZM47.793 73.4721H43.3481C43.0558 73.4721 42.8187 73.235 42.8187 72.9427C42.8187 72.6504 43.0558 72.4133 43.3481 72.4133H47.793C48.0852 72.4133 48.3224 72.6504 48.3224 72.9427C48.3224 73.235 48.0852 73.4721 47.793 73.4721Z" fill="#C5CEEA"/>
<path d="M50.5234 51.7851V57.7657C50.5234 58.3482 50.0513 58.8204 49.4688 58.8204H43.4882C42.9058 58.8204 42.4336 58.3482 42.4336 57.7657V51.7851C42.4336 51.2026 42.9058 50.7305 43.4882 50.7305H49.4688C50.0512 50.7305 50.5234 51.2026 50.5234 51.7851ZM50.5234 62.7094V68.6901C50.5234 69.2725 50.0513 69.7447 49.4688 69.7447H43.4882C42.9058 69.7447 42.4336 69.2725 42.4336 68.6901V62.7094C42.4336 62.127 42.9058 61.6548 43.4882 61.6548H49.4688C50.0512 61.6548 50.5234 62.127 50.5234 62.7094Z" fill="#6699FF"/>
<path d="M67.063 66.0782H54.7403C54.4481 66.0782 54.2109 65.8411 54.2109 65.5488C54.2109 65.2565 54.4481 65.0194 54.7403 65.0194H67.063C67.3552 65.0194 67.5924 65.2565 67.5924 65.5488C67.5924 65.8411 67.3552 66.0782 67.063 66.0782ZM67.063 63.6566H54.7403C54.4481 63.6566 54.2109 63.4195 54.2109 63.1272C54.2109 62.8349 54.4481 62.5978 54.7403 62.5978H67.063C67.3552 62.5978 67.5924 62.8349 67.5924 63.1272C67.5924 63.4195 67.3552 63.6566 67.063 63.6566ZM65.026 68.7984H54.7403C54.4481 68.7984 54.2109 68.5612 54.2109 68.269C54.2109 67.9767 54.4481 67.7395 54.7403 67.7395H65.026C65.3182 67.7395 65.5554 67.9767 65.5554 68.269C65.5554 68.5612 65.3182 68.7984 65.026 68.7984ZM67.063 55.1543H54.7403C54.4481 55.1543 54.2109 54.9172 54.2109 54.6249C54.2109 54.3326 54.4481 54.0955 54.7403 54.0955H67.063C67.3552 54.0955 67.5924 54.3326 67.5924 54.6249C67.5924 54.9172 67.3552 55.1543 67.063 55.1543ZM67.063 52.7327H54.7403C54.4481 52.7327 54.2109 52.4955 54.2109 52.2032C54.2109 51.911 54.4481 51.6738 54.7403 51.6738H67.063C67.3552 51.6738 67.5924 51.911 67.5924 52.2032C67.5924 52.4955 67.3552 52.7327 67.063 52.7327ZM65.026 57.8737H54.7403C54.4481 57.8737 54.2109 57.6366 54.2109 57.3443C54.2109 57.052 54.4481 56.8149 54.7403 56.8149H65.026C65.3182 56.8149 65.5554 57.052 65.5554 57.3443C65.5554 57.6366 65.3182 57.8737 65.026 57.8737Z" fill="#C5CEEA"/>
<path d="M45.7045 56.5354C45.5639 56.5354 45.4295 56.4795 45.3302 56.3803L44.4168 55.4662C44.21 55.2594 44.21 54.9244 44.4168 54.7176C44.6236 54.5101 44.9586 54.5115 45.1654 54.7176L45.7045 55.2574L47.7911 53.1707C47.9979 52.9639 48.3329 52.9639 48.5398 53.1707C48.7466 53.3775 48.7466 53.7125 48.5398 53.9194L46.0788 56.3803C45.9796 56.4795 45.8451 56.5354 45.7045 56.5354ZM45.7045 67.4593C45.5639 67.4593 45.4295 67.4035 45.3302 67.3042L44.4168 66.3902C44.21 66.1834 44.21 65.8483 44.4168 65.6415C44.6236 65.4347 44.9586 65.4347 45.1654 65.6415L45.7045 66.1813L47.7911 64.0947C47.9979 63.8879 48.3329 63.8879 48.5398 64.0947C48.7466 64.3015 48.7466 64.6365 48.5398 64.8433L46.0788 67.3042C45.9796 67.4035 45.8451 67.4593 45.7045 67.4593Z" fill="white"/>
<path d="M43.3476 44.3812C42.959 44.3812 42.6445 44.0667 42.6445 43.6781V38.1152C42.6445 37.7266 42.959 37.4121 43.3476 37.4121C43.7362 37.4121 44.0507 37.7266 44.0507 38.1152V43.6781C44.0507 44.0667 43.7362 44.3812 43.3476 44.3812ZM50.9484 44.3812C50.5597 44.3812 50.2453 44.0667 50.2453 43.6781V38.1152C50.2453 37.7266 50.5598 37.4121 50.9484 37.4121C51.337 37.4121 51.6515 37.7266 51.6515 38.1152V43.6781C51.6515 44.0667 51.337 44.3812 50.9484 44.3812ZM58.5484 44.3812C58.1598 44.3812 57.8453 44.0667 57.8453 43.6781V38.1152C57.8453 37.7266 58.1598 37.4121 58.5484 37.4121C58.9371 37.4121 59.2515 37.7266 59.2515 38.1152V43.6781C59.2515 44.0667 58.9371 44.3812 58.5484 44.3812ZM66.1485 44.3812C65.7599 44.3812 65.4454 44.0667 65.4454 43.6781V38.1152C65.4454 37.7266 65.7599 37.4121 66.1485 37.4121C66.5371 37.4121 66.8516 37.7266 66.8516 38.1152V43.6781C66.8516 44.0667 66.5371 44.3812 66.1485 44.3812Z" fill="#4C4947"/>
<path d="M39.419 56.268C39.2729 56.268 39.1543 56.1495 39.1543 56.0033V48.8466C39.1543 48.7005 39.2729 48.5819 39.419 48.5819C39.5651 48.5819 39.6837 48.7005 39.6837 48.8466V56.0033C39.6837 56.1495 39.5651 56.268 39.419 56.268ZM39.419 47.8884C39.2729 47.8884 39.1543 47.7699 39.1543 47.6237V47.1846C39.1543 47.0385 39.2729 46.9199 39.419 46.9199C39.5651 46.9199 39.6837 47.0385 39.6837 47.1846V47.6237C39.6837 47.7699 39.5651 47.8884 39.419 47.8884Z" fill="white"/>
<path d="M82.1708 56.7913L72.3007 72.5972C72.1947 72.7658 72.0522 72.9083 71.8837 73.0144L67.4269 75.8204C67.1765 75.9781 66.8548 75.7761 66.8881 75.4821L67.4808 70.2466C67.5032 70.0483 67.57 69.8576 67.6762 69.6887L77.546 53.8834C78.349 52.6063 80.0353 52.2219 81.3124 53.0249C82.5895 53.8279 82.9738 55.5142 82.1708 56.7913Z" fill="#77E244"/>
<path d="M67.7091 69.6367L67.6762 69.689C67.57 69.8579 67.5032 70.0486 67.4808 70.2469L66.8881 75.4824C66.8548 75.7764 67.1765 75.9784 67.4269 75.8207L71.8837 73.0147C72.0522 72.9087 72.1947 72.7661 72.3007 72.5975L72.3339 72.5446L67.7091 69.6367Z" fill="#FFC776"/>
<path d="M67.0953 73.6348L66.8862 75.4818C66.8529 75.7759 67.1745 75.9779 67.4249 75.8202L68.9971 74.8303L67.0953 73.6348Z" fill="#4C4947"/>
<path d="M81.1736 58.3767L82.1704 56.7913C82.9734 55.5142 82.5891 53.828 81.312 53.025C80.0349 52.222 78.3486 52.6063 77.5456 53.8834L76.5488 55.4688L81.1736 58.3767Z" fill="#666666"/>
<path d="M70.8233 67.2215C70.7751 67.2215 70.7268 67.2084 70.6827 67.1816C70.5593 67.1037 70.5214 66.9403 70.5986 66.8162L70.8495 66.415C70.9274 66.2909 71.0901 66.2544 71.2149 66.3309C71.3383 66.4088 71.3762 66.5722 71.299 66.6963L71.0481 67.0975C70.9978 67.1774 70.9116 67.2215 70.8233 67.2215ZM71.9863 65.3589C71.938 65.3589 71.8898 65.3459 71.8463 65.319C71.7222 65.2411 71.6843 65.0777 71.7615 64.9543L74.5127 60.5501C74.5906 60.4254 74.7546 60.3895 74.8773 60.4653C75.0014 60.5432 75.0393 60.7066 74.9621 60.83L72.211 65.2342C72.1607 65.3148 72.0745 65.3589 71.9863 65.3589Z" fill="white"/>
</svg>
