<svg width="120" height="120" viewBox="0 0 120 120" fill="none" xmlns="http://www.w3.org/2000/svg">
<rect width="120" height="120" rx="60" fill="white"/>
<rect width="120" height="120" rx="60" fill="#FF9100" fill-opacity="0.05"/>
<path d="M57.4404 39.216V73.61H52.9365V39.216C52.9404 38.6213 53.1793 38.0522 53.6012 37.633C54.0232 37.2138 54.5938 36.9785 55.1885 36.9785C55.7833 36.9785 56.3539 37.2138 56.7758 37.633C57.1978 38.0522 57.4367 38.6213 57.4406 39.216H57.4404Z" fill="#EABD8C"/>
<path d="M54.3965 73.6108H52.9368V39.2168C52.9368 38.9211 52.995 38.6282 53.1082 38.355C53.2213 38.0818 53.3872 37.8335 53.5963 37.6244C53.8054 37.4153 54.0537 37.2494 54.3269 37.1362C54.6002 37.0231 54.893 36.9648 55.1887 36.9648C55.201 36.9648 55.2132 36.9655 55.2255 36.9658C54.9662 37.1767 54.7573 37.4428 54.6139 37.7447C54.4705 38.0466 54.3962 38.3767 54.3965 38.7109V73.6108Z" fill="#D3A06C"/>
<path d="M63.6725 60.4616V58.9511H49.7345L48.1712 59.9501H42.2432C42.8396 58.6323 44.0994 56.0515 44.0994 56.0515C44.0994 56.0515 42.9781 53.6966 42.2432 52.0961H48.2825L49.8088 53.0608H63.6725V51.6412C63.6725 51.4894 63.7147 51.3406 63.7944 51.2113C63.8741 51.0821 63.9881 50.9776 64.1237 50.9095C64.2594 50.8413 64.4113 50.8122 64.5625 50.8254C64.7138 50.8385 64.8584 50.8935 64.9802 50.9841L70.3239 54.9584C70.488 55.0804 70.6214 55.2389 70.7136 55.4213C70.8058 55.6038 70.8543 55.8052 70.8552 56.0097C70.8561 56.2141 70.8095 56.4159 70.7189 56.5992C70.6283 56.7825 70.4963 56.9421 70.3333 57.0656L64.9861 61.1145C64.8646 61.2066 64.7198 61.2629 64.568 61.2772C64.4162 61.2914 64.2635 61.263 64.127 61.1952C63.9904 61.1273 63.8756 61.0227 63.7953 60.8931C63.715 60.7635 63.6725 60.6141 63.6725 60.4616Z" fill="#80EAFF"/>
<path d="M70.8027 55.6543C70.8764 55.9096 70.871 56.1812 70.7872 56.4334C70.7033 56.6855 70.545 56.9063 70.3331 57.0666L64.9858 61.1156C64.8643 61.2076 64.7195 61.2639 64.5678 61.2781C64.4161 61.2923 64.2634 61.2639 64.1269 61.196C63.9904 61.1282 63.8756 61.0236 63.7953 60.8941C63.7151 60.7645 63.6725 60.6151 63.6725 60.4627V58.9521H49.7345L48.1712 59.9511H42.2432C42.435 59.5273 42.6956 58.9727 42.9607 58.4153L47.7599 58.5449L49.3233 57.5459H63.9145C64.0674 57.5459 64.2188 57.576 64.3601 57.6345C64.5013 57.693 64.6297 57.7787 64.7378 57.8868C64.8459 57.9949 64.9317 58.1233 64.9902 58.2645C65.0487 58.4058 65.0788 58.5572 65.0788 58.7101V59.2814L70.005 56.5058C70.3125 56.3197 70.5719 56.0207 70.8027 55.6543Z" fill="#66CCFF"/>
<path d="M45.2939 49.3705L39.9468 45.3214C39.7838 45.198 39.6518 45.0383 39.5612 44.855C39.4706 44.6718 39.4239 44.4699 39.4248 44.2655C39.4257 44.0611 39.4742 43.8596 39.5664 43.6772C39.6586 43.4947 39.7921 43.3362 39.9561 43.2143L45.2999 39.2399C45.4217 39.1493 45.5663 39.0944 45.7175 39.0812C45.8688 39.068 46.0207 39.0972 46.1563 39.1653C46.292 39.2335 46.406 39.338 46.4857 39.4672C46.5654 39.5964 46.6076 39.7452 46.6076 39.897V41.3167H60.4707L61.9968 40.3519H68.0361C67.301 41.9525 66.1799 44.3073 66.1799 44.3073C66.1799 44.3073 67.4399 46.8882 68.0361 48.206H62.1085L60.5451 47.2069H46.6072V48.7176C46.6072 48.87 46.5647 49.0194 46.4844 49.1489C46.4041 49.2784 46.2893 49.383 46.1528 49.4509C46.0163 49.5187 45.8636 49.5471 45.7119 49.5329C45.5602 49.5187 45.4154 49.4624 45.2939 49.3705Z" fill="#80EAFF"/>
<path d="M40.2751 44.7618L45.2014 47.5373V47.1332C45.2014 46.7801 45.3417 46.4415 45.5913 46.1919C45.841 45.9422 46.1796 45.8019 46.5327 45.8019H60.9564L62.5198 46.8011L67.3189 46.6716C67.5841 47.2289 67.8447 47.7835 68.0365 48.2074H62.1088L60.5454 47.208H46.6075V48.7187C46.6075 48.8711 46.5649 49.0205 46.4846 49.15C46.4044 49.2795 46.2895 49.3841 46.1531 49.452C46.0166 49.5198 45.8639 49.5482 45.7122 49.534C45.5604 49.5198 45.4157 49.4636 45.2941 49.3716L39.947 45.3225C39.7351 45.1622 39.5768 44.9414 39.4929 44.6892C39.4091 44.4371 39.4036 44.1655 39.4773 43.9102C39.708 44.2765 39.9675 44.5756 40.2751 44.7618Z" fill="#66CCFF"/>
<path d="M64.792 75.7051C64.792 76.2605 64.5714 76.793 64.1787 77.1857C63.7861 77.5784 63.2535 77.799 62.6982 77.799H47.6788C47.1235 77.799 46.5909 77.5784 46.1982 77.1857C45.8056 76.793 45.585 76.2605 45.585 75.7051C45.585 75.1498 45.8056 74.6173 46.1982 74.2246C46.5909 73.8319 47.1235 73.6113 47.6788 73.6113H62.6982C63.2535 73.6113 63.7861 73.8319 64.1787 74.2246C64.5714 74.6173 64.792 75.1498 64.792 75.7051Z" fill="#393939"/>
<path d="M64.792 75.7037C64.792 75.9786 64.7379 76.2509 64.6326 76.5049C64.5274 76.759 64.3732 76.9898 64.1788 77.1842C63.9844 77.3786 63.7536 77.5329 63.4995 77.6381C63.2455 77.7433 62.9732 77.7975 62.6983 77.7975H47.6788C47.1235 77.7975 46.5909 77.5769 46.1982 77.1842C45.8056 76.7916 45.585 76.259 45.585 75.7037C45.585 75.6975 45.585 75.6913 45.5854 75.6849C45.7811 75.8952 46.018 76.0629 46.2814 76.1774C46.5448 76.2919 46.829 76.3509 47.1163 76.3505H62.1358C62.6878 76.3505 63.2175 76.1324 63.6095 75.7438C64.0015 75.3551 64.2242 74.8274 64.229 74.2754C64.5914 74.6626 64.7927 75.1733 64.792 75.7037Z" fill="#343434"/>
<path d="M70.0054 83.0362C67.9149 83.0362 65.8714 82.4163 64.1332 81.2549C62.395 80.0935 61.0402 78.4427 60.2402 76.5114C59.4402 74.58 59.2309 72.4548 59.6388 70.4044C60.0466 68.3541 61.0533 66.4707 62.5315 64.9925C64.0097 63.5143 65.893 62.5077 67.9434 62.0998C69.9937 61.692 72.1189 61.9013 74.0503 62.7013C75.9817 63.5013 77.6324 64.8561 78.7938 66.5942C79.9553 68.3324 80.5752 70.376 80.5752 72.4665C80.572 75.2688 79.4574 77.9554 77.4759 79.9369C75.4943 81.9184 72.8077 83.0331 70.0054 83.0362Z" fill="#FDBF00"/>
<path d="M70.0055 83.0362C67.2022 83.0362 64.5138 81.9226 62.5315 79.9404C60.5493 77.9582 59.4357 75.2697 59.4357 72.4665C59.4357 69.6632 60.5493 66.9747 62.5315 64.9925C64.5138 63.0103 67.2022 61.8967 70.0055 61.8967V83.0362Z" fill="#FF9100"/>
<path d="M77.1345 72.4665C77.1345 73.8765 76.7164 75.2548 75.9331 76.4271C75.1498 77.5994 74.0364 78.5131 72.7338 79.0527C71.4312 79.5923 69.9979 79.7335 68.615 79.4584C67.2322 79.1834 65.9619 78.5044 64.965 77.5075C63.968 76.5105 63.289 75.2403 63.0139 73.8574C62.7389 72.4746 62.88 71.0412 63.4196 69.7386C63.9591 68.436 64.8729 67.3226 66.0452 66.5393C67.2175 65.756 68.5958 65.3379 70.0057 65.3379C71.8964 65.3379 73.7096 66.0889 75.0465 67.4258C76.3834 68.7627 77.1344 70.5759 77.1345 72.4665Z" fill="#FFDF40"/>
<path d="M70.0057 79.5954C68.115 79.5954 66.3018 78.8443 64.9649 77.5074C63.628 76.1705 62.877 74.3573 62.877 72.4666C62.877 70.576 63.628 68.7628 64.9649 67.4259C66.3018 66.089 68.115 65.3379 70.0057 65.3379V79.5954Z" fill="#FFBE40"/>
<path d="M72.5192 73.6629C72.5993 74.131 72.5289 74.6124 72.3179 75.038C72.107 75.4635 71.7665 75.8111 71.3454 76.0307C71.1291 76.1465 70.8992 76.2349 70.6611 76.2939V77.0276C70.6611 77.2016 70.5919 77.3685 70.4689 77.4916C70.3458 77.6147 70.1789 77.6838 70.0048 77.6838C69.8308 77.6838 69.6638 77.6147 69.5408 77.4916C69.4177 77.3685 69.3486 77.2016 69.3486 77.0276V76.3255C69.1562 76.2873 68.9682 76.2297 68.7875 76.1534C68.1312 75.8763 67.6557 75.3686 67.4819 74.7605C67.4579 74.6775 67.4505 74.5907 67.4602 74.5048C67.4698 74.419 67.4963 74.336 67.5381 74.2604C67.5799 74.1848 67.6362 74.1183 67.7038 74.0645C67.7714 74.0107 67.8489 73.9709 67.932 73.9471C68.015 73.9234 68.1019 73.9163 68.1877 73.9262C68.2735 73.9361 68.3565 73.9629 68.4319 74.005C68.5073 74.047 68.5737 74.1035 68.6272 74.1713C68.6808 74.2391 68.7204 74.3167 68.7439 74.3998C68.8316 74.7069 69.129 74.8729 69.2984 74.9444C69.5268 75.0374 69.7727 75.0793 70.019 75.0672C70.2652 75.0551 70.5059 74.9893 70.7241 74.8744C70.8994 74.784 71.0421 74.6411 71.1323 74.4657C71.2225 74.2903 71.2557 74.091 71.2271 73.8958C71.1325 73.3708 70.5615 72.9997 69.6615 72.8765C68.6915 72.7437 67.9768 72.2084 67.7008 71.408C67.579 71.0479 67.5585 70.6613 67.6416 70.2903C67.7246 69.9194 67.908 69.5784 68.1716 69.3045C68.4957 68.9794 68.9029 68.7494 69.3487 68.6397V67.9062C69.3487 67.7322 69.4178 67.5653 69.5409 67.4422C69.6639 67.3191 69.8309 67.25 70.0049 67.25C70.179 67.25 70.3459 67.3191 70.4689 67.4422C70.592 67.5653 70.6612 67.7322 70.6612 67.9062V68.6226C71.2539 68.759 71.7832 69.0915 72.1636 69.5661C72.2727 69.7013 72.3237 69.8742 72.3055 70.0469C72.2873 70.2197 72.2013 70.3782 72.0665 70.4876C71.9316 70.5971 71.7589 70.6487 71.5861 70.631C71.4133 70.6133 71.2545 70.5279 71.1446 70.3933C71.0202 70.2353 70.8628 70.1062 70.6834 70.0151C70.504 69.924 70.3069 69.873 70.1059 69.8657C69.9251 69.854 69.7439 69.8793 69.5732 69.94C69.4026 70.0007 69.2461 70.0955 69.1133 70.2188C69.0177 70.3178 68.9511 70.4411 68.9208 70.5754C68.8905 70.7097 68.8977 70.8497 68.9416 70.9801C69.052 71.3003 69.3709 71.5119 69.8394 71.5761C71.3183 71.7784 72.32 72.5586 72.5192 73.6629Z" fill="#68544F"/>
<path d="M67.7007 71.408C67.5789 71.0479 67.5585 70.6613 67.6415 70.2903C67.7245 69.9194 67.9079 69.5784 68.1715 69.3045C68.4957 68.9794 68.9028 68.7494 69.3486 68.6397V67.9062C69.3486 67.7322 69.4177 67.5653 69.5408 67.4422C69.6638 67.3191 69.8308 67.25 70.0048 67.25V69.8663C69.6736 69.8665 69.3549 69.9925 69.1131 70.2188C69.0174 70.3178 68.9508 70.4411 68.9205 70.5754C68.8903 70.7097 68.8974 70.8497 68.9413 70.9801C69.0518 71.3003 69.3706 71.5119 69.8392 71.5761C69.8954 71.5838 69.9498 71.5939 70.0048 71.6033V72.9395C69.8963 72.9143 69.782 72.8926 69.6612 72.8765C68.6914 72.7437 67.9767 72.2084 67.7007 71.408ZM70.005 75.0673C69.7633 75.0788 69.522 75.0369 69.2984 74.9444C69.129 74.8729 68.8316 74.7069 68.7439 74.3998C68.7204 74.3167 68.6808 74.2391 68.6272 74.1713C68.5737 74.1035 68.5073 74.047 68.4319 74.005C68.3565 73.9629 68.2735 73.9361 68.1877 73.9262C68.1019 73.9163 68.015 73.9234 67.932 73.9471C67.8489 73.9709 67.7714 74.0107 67.7038 74.0645C67.6362 74.1183 67.5799 74.1848 67.5381 74.2604C67.4963 74.336 67.4698 74.419 67.4602 74.5048C67.4505 74.5907 67.4579 74.6775 67.4819 74.7605C67.6557 75.3686 68.1316 75.8761 68.7876 76.1534C68.9682 76.2297 69.1562 76.2873 69.3486 76.3255V77.0276C69.3486 77.2016 69.4177 77.3685 69.5408 77.4916C69.6638 77.6147 69.8308 77.6838 70.0048 77.6838L70.005 75.0673Z" fill="#53433F"/>
</svg>
