<svg width="96" height="96" viewBox="0 0 96 96" fill="none" xmlns="http://www.w3.org/2000/svg">
<rect width="96" height="96" rx="48" fill="white"/>
<rect width="96" height="96" rx="48" fill="#ABC4FF" fill-opacity="0.1"/>
<path d="M52.125 61.75L41.125 68.625L43.875 61.75C39.4989 61.75 35.3021 60.0116 32.2077 56.9173C29.1134 53.8229 27.375 49.6261 27.375 45.25V43.875C27.375 39.4989 29.1134 35.3021 32.2077 32.2077C35.3021 29.1134 39.4989 27.375 43.875 27.375H52.125C56.5011 27.375 60.6979 29.1134 63.7923 32.2077C66.8866 35.3021 68.625 39.4989 68.625 43.875V45.25C68.625 49.6261 66.8866 53.8229 63.7923 56.9173C60.6979 60.0116 56.5011 61.75 52.125 61.75Z" fill="#ABC4FF"/>
<path d="M54.1875 49.375V50.75C54.1865 54.3926 52.9802 57.9325 50.7566 60.8177C48.533 63.7029 45.4172 65.7711 41.895 66.7L43.875 61.75C39.4989 61.75 35.3021 60.0116 32.2078 56.9173C29.1134 53.8229 27.375 49.6261 27.375 45.25V43.875C27.3695 39.8143 28.8684 35.8955 31.5825 32.875H37.6875C42.0636 32.875 46.2604 34.6134 49.3548 37.7077C52.4491 40.8021 54.1875 44.9989 54.1875 49.375Z" fill="#C1D3FE"/>
<path d="M49.375 41.125C49.375 40.3656 48.7594 39.75 48 39.75C47.2406 39.75 46.625 40.3656 46.625 41.125V53.5C46.625 54.2594 47.2406 54.875 48 54.875C48.7594 54.875 49.375 54.2594 49.375 53.5V41.125Z" fill="#FDFFB6"/>
<path d="M48 37C48.7594 37 49.375 36.3844 49.375 35.625C49.375 34.8656 48.7594 34.25 48 34.25C47.2406 34.25 46.625 34.8656 46.625 35.625C46.625 36.3844 47.2406 37 48 37Z" fill="#FDFFB6"/>
</svg>
