<svg width="44" height="44" viewBox="0 0 44 44" fill="none" xmlns="http://www.w3.org/2000/svg">
<rect width="44" height="44" rx="22" fill="url(#paint0_radial_115_276)"/>
<rect width="44" height="44" rx="22" fill="url(#paint1_radial_115_276)"/>
<rect width="44" height="44" rx="22" fill="url(#paint2_radial_115_276)"/>
<path d="M29 16.5C29 17.3284 28.3284 18 27.5 18C26.6716 18 26 17.3284 26 16.5C26 15.6716 26.6716 15 27.5 15C28.3284 15 29 15.6716 29 16.5Z" fill="white"/>
<path fill-rule="evenodd" clip-rule="evenodd" d="M22 27C24.7614 27 27 24.7614 27 22C27 19.2386 24.7614 17 22 17C19.2386 17 17 19.2386 17 22C17 24.7614 19.2386 27 22 27ZM22 25C23.6569 25 25 23.6569 25 22C25 20.3431 23.6569 19 22 19C20.3431 19 19 20.3431 19 22C19 23.6569 20.3431 25 22 25Z" fill="white"/>
<path fill-rule="evenodd" clip-rule="evenodd" d="M12 21.6C12 18.2397 12 16.5595 12.654 15.2761C13.2292 14.1471 14.1471 13.2292 15.2761 12.654C16.5595 12 18.2397 12 21.6 12H22.4C25.7603 12 27.4405 12 28.7239 12.654C29.8529 13.2292 30.7708 14.1471 31.346 15.2761C32 16.5595 32 18.2397 32 21.6V22.4C32 25.7603 32 27.4405 31.346 28.7239C30.7708 29.8529 29.8529 30.7708 28.7239 31.346C27.4405 32 25.7603 32 22.4 32H21.6C18.2397 32 16.5595 32 15.2761 31.346C14.1471 30.7708 13.2292 29.8529 12.654 28.7239C12 27.4405 12 25.7603 12 22.4V21.6ZM21.6 14H22.4C24.1132 14 25.2777 14.0016 26.1779 14.0751C27.0548 14.1467 27.5032 14.2766 27.816 14.436C28.5686 14.8195 29.1805 15.4314 29.564 16.184C29.7234 16.4968 29.8533 16.9452 29.9249 17.8221C29.9984 18.7223 30 19.8868 30 21.6V22.4C30 24.1132 29.9984 25.2777 29.9249 26.1779C29.8533 27.0548 29.7234 27.5032 29.564 27.816C29.1805 28.5686 28.5686 29.1805 27.816 29.564C27.5032 29.7234 27.0548 29.8533 26.1779 29.9249C25.2777 29.9984 24.1132 30 22.4 30H21.6C19.8868 30 18.7223 29.9984 17.8221 29.9249C16.9452 29.8533 16.4968 29.7234 16.184 29.564C15.4314 29.1805 14.8195 28.5686 14.436 27.816C14.2766 27.5032 14.1467 27.0548 14.0751 26.1779C14.0016 25.2777 14 24.1132 14 22.4V21.6C14 19.8868 14.0016 18.7223 14.0751 17.8221C14.1467 16.9452 14.2766 16.4968 14.436 16.184C14.8195 15.4314 15.4314 14.8195 16.184 14.436C16.4968 14.2766 16.9452 14.1467 17.8221 14.0751C18.7223 14.0016 19.8868 14 21.6 14Z" fill="white"/>
<defs>
<radialGradient id="paint0_radial_115_276" cx="0" cy="0" r="1" gradientUnits="userSpaceOnUse" gradientTransform="translate(15.7143 33) rotate(-55.3758) scale(40.1022)">
<stop stop-color="#B13589"/>
<stop offset="0.79309" stop-color="#C62F94"/>
<stop offset="1" stop-color="#8A3AC8"/>
</radialGradient>
<radialGradient id="paint1_radial_115_276" cx="0" cy="0" r="1" gradientUnits="userSpaceOnUse" gradientTransform="translate(14.1429 45.5714) rotate(-65.1363) scale(35.5052)">
<stop stop-color="#E0E8B7"/>
<stop offset="0.444662" stop-color="#FB8A2E"/>
<stop offset="0.71474" stop-color="#E2425C"/>
<stop offset="1" stop-color="#E2425C" stop-opacity="0"/>
</radialGradient>
<radialGradient id="paint2_radial_115_276" cx="0" cy="0" r="1" gradientUnits="userSpaceOnUse" gradientTransform="translate(-2.35714 1.57143) rotate(-8.1301) scale(61.1142 13.0717)">
<stop offset="0.156701" stop-color="#406ADC"/>
<stop offset="0.467799" stop-color="#6A45BE"/>
<stop offset="1" stop-color="#6A45BE" stop-opacity="0"/>
</radialGradient>
</defs>
</svg>
