<svg width="65" height="64" viewBox="0 0 65 64" fill="none" xmlns="http://www.w3.org/2000/svg">
<rect x="0.200195" width="64" height="64" rx="32" fill="#76BD43" fill-opacity="0.15"/>
<g clip-path="url(#clip0_0_720)">
<path d="M50.867 30.8322C50.867 30.6774 50.8055 30.5291 50.6961 30.4197C50.5867 30.3103 50.4384 30.2488 50.2836 30.2488H40.2876L39.9193 28.4988H50.2836C50.4384 28.4988 50.5867 28.4374 50.6961 28.328C50.8055 28.2186 50.867 28.0702 50.867 27.9155C50.867 27.7608 50.8055 27.6124 50.6961 27.503C50.5867 27.3936 50.4384 27.3322 50.2836 27.3322H38.3253V28.4988H38.7269L43.2962 50.2023C43.3113 50.2779 43.3413 50.3498 43.3843 50.4137C43.4274 50.4777 43.4827 50.5325 43.5471 50.5749C43.6114 50.6173 43.6836 50.6466 43.7593 50.661C43.8351 50.6754 43.9129 50.6746 43.9884 50.6587C44.0638 50.6428 44.1354 50.6122 44.1989 50.5685C44.2624 50.5247 44.3166 50.4689 44.3584 50.4041C44.4002 50.3393 44.4287 50.2669 44.4423 50.191C44.456 50.1151 44.4544 50.0373 44.4378 49.962L44.217 48.9155H50.2836C50.4384 48.9155 50.5867 48.854 50.6961 48.7446C50.8055 48.6352 50.867 48.4869 50.867 48.3322C50.867 48.1774 50.8055 48.0291 50.6961 47.9197C50.5867 47.8103 50.4384 47.7488 50.2836 47.7488H43.972L43.6036 45.9988H50.2836C50.4384 45.9988 50.5867 45.9374 50.6961 45.828C50.8055 45.7186 50.867 45.5702 50.867 45.4155C50.867 45.2608 50.8055 45.1124 50.6961 45.003C50.5867 44.8936 50.4384 44.8322 50.2836 44.8322H43.3577L42.9893 43.0822H50.2836C50.4384 43.0822 50.5867 43.0207 50.6961 42.9113C50.8055 42.8019 50.867 42.6535 50.867 42.4988C50.867 42.3441 50.8055 42.1957 50.6961 42.0863C50.5867 41.9769 50.4384 41.9155 50.2836 41.9155H42.7438L42.3754 40.1655H50.2836C50.4384 40.1655 50.5867 40.104 50.6961 39.9946C50.8055 39.8852 50.867 39.7369 50.867 39.5822C50.867 39.4274 50.8055 39.2791 50.6961 39.1697C50.5867 39.0603 50.4384 38.9988 50.2836 38.9988H42.1298L41.7614 37.2488H50.2836C50.4384 37.2488 50.5867 37.1874 50.6961 37.078C50.8055 36.9686 50.867 36.8202 50.867 36.6655C50.867 36.5108 50.8055 36.3624 50.6961 36.253C50.5867 36.1436 50.4384 36.0822 50.2836 36.0822H41.5159L41.1475 34.3322H50.2836C50.4384 34.3322 50.5867 34.2707 50.6961 34.1613C50.8055 34.0519 50.867 33.9035 50.867 33.7488C50.867 33.5941 50.8055 33.4457 50.6961 33.3363C50.5867 33.2269 50.4384 33.1655 50.2836 33.1655H40.9016L40.5332 31.4155H50.2836C50.4384 31.4155 50.5867 31.354 50.6961 31.2446C50.8055 31.1352 50.867 30.9869 50.867 30.8322ZM19.6586 23.4874C20.0718 23.6908 20.5217 23.8091 20.9815 23.8353C21.4413 23.8615 21.9017 23.7951 22.3353 23.6399C22.7689 23.4847 23.1669 23.244 23.5057 22.932C23.8445 22.62 24.1171 22.2431 24.3074 21.8237C24.4977 21.4043 24.6018 20.951 24.6135 20.4906C24.6252 20.0302 24.5442 19.5721 24.3754 19.1436C24.2067 18.7151 23.9535 18.3248 23.631 17.9961C23.3085 17.6673 22.9232 17.4067 22.498 17.2297C22.5639 16.7415 22.5247 16.2449 22.3828 15.7731C22.241 15.3014 21.9999 14.8654 21.6757 14.4945C21.3515 14.1236 20.9518 13.8263 20.5032 13.6227C20.0547 13.419 19.5678 13.3136 19.0752 13.3136C18.5826 13.3136 18.0956 13.419 17.6471 13.6227C17.1986 13.8263 16.7988 14.1236 16.4746 14.4945C16.1504 14.8654 15.9093 15.3014 15.7675 15.7731C15.6257 16.2449 15.5864 16.7415 15.6523 17.2297C14.9169 17.5341 14.3102 18.0848 13.936 18.7873C13.5618 19.4898 13.4435 20.3006 13.6013 21.0807C13.7591 21.8609 14.1831 22.5619 14.8009 23.0639C15.4186 23.5658 16.1916 23.8374 16.9876 23.8322C17.5087 23.8327 18.0231 23.7149 18.492 23.4874V27.3322H14.117C13.9623 27.3322 13.8139 27.3936 13.7045 27.503C13.5951 27.6124 13.5336 27.7608 13.5336 27.9155C13.5336 28.0702 13.5951 28.2186 13.7045 28.328C13.8139 28.4374 13.9623 28.4988 14.117 28.4988H24.4814L24.113 30.2488H14.117C13.9623 30.2488 13.8139 30.3103 13.7045 30.4197C13.5951 30.5291 13.5336 30.6774 13.5336 30.8322C13.5336 30.9869 13.5951 31.1352 13.7045 31.2446C13.8139 31.354 13.9623 31.4155 14.117 31.4155H23.8674L23.499 33.1655H14.117C13.9623 33.1655 13.8139 33.2269 13.7045 33.3363C13.5951 33.4457 13.5336 33.5941 13.5336 33.7488C13.5336 33.9035 13.5951 34.0519 13.7045 34.1613C13.8139 34.2707 13.9623 34.3322 14.117 34.3322H23.2534L22.8851 36.0822H14.117C13.9623 36.0822 13.8139 36.1436 13.7045 36.253C13.5951 36.3624 13.5336 36.5108 13.5336 36.6655C13.5336 36.8202 13.5951 36.9686 13.7045 37.078C13.8139 37.1874 13.9623 37.2488 14.117 37.2488H22.6392L22.2708 38.9988H14.117C13.9623 38.9988 13.8139 39.0603 13.7045 39.1697C13.5951 39.2791 13.5336 39.4274 13.5336 39.5822C13.5336 39.7369 13.5951 39.8852 13.7045 39.9946C13.8139 40.104 13.9623 40.1655 14.117 40.1655H22.0252L21.6569 41.9155H14.117C13.9623 41.9155 13.8139 41.9769 13.7045 42.0863C13.5951 42.1957 13.5336 42.3441 13.5336 42.4988C13.5336 42.6535 13.5951 42.8019 13.7045 42.9113C13.8139 43.0207 13.9623 43.0822 14.117 43.0822H21.4113L21.0429 44.8322H14.117C13.9623 44.8322 13.8139 44.8936 13.7045 45.003C13.5951 45.1124 13.5336 45.2608 13.5336 45.4155C13.5336 45.5702 13.5951 45.7186 13.7045 45.828C13.8139 45.9374 13.9623 45.9988 14.117 45.9988H20.7961L20.4278 47.7488H14.117C13.9623 47.7488 13.8139 47.8103 13.7045 47.9197C13.5951 48.0291 13.5336 48.1774 13.5336 48.3322C13.5336 48.4869 13.5951 48.6352 13.7045 48.7446C13.8139 48.854 13.9623 48.9155 14.117 48.9155H20.1836L19.9634 49.962C19.9468 50.0373 19.9452 50.1151 19.9589 50.191C19.9725 50.2669 20.001 50.3393 20.0428 50.4041C20.0846 50.4689 20.1388 50.5247 20.2023 50.5685C20.2658 50.6122 20.3374 50.6428 20.4128 50.6587C20.4883 50.6746 20.5661 50.6754 20.6419 50.661C20.7176 50.6466 20.7898 50.6173 20.8541 50.5749C20.9185 50.5325 20.9738 50.4777 21.0169 50.4137C21.0599 50.3498 21.0899 50.2779 21.105 50.2023L25.6737 28.4988H28.0522L25.7869 50.0212C25.7788 50.0974 25.7858 50.1745 25.8075 50.248C25.8292 50.3215 25.8652 50.39 25.9134 50.4496C25.9617 50.5092 26.0211 50.5587 26.0885 50.5953C26.1559 50.6319 26.2298 50.6549 26.306 50.6629C26.3267 50.6649 26.3474 50.6661 26.3679 50.6661C26.5119 50.6659 26.6508 50.6125 26.7578 50.516C26.8648 50.4196 26.9323 50.287 26.9474 50.1437L29.2253 28.4988H31.617V50.0822C31.617 50.2369 31.6784 50.3852 31.7878 50.4946C31.8972 50.604 32.0456 50.6655 32.2003 50.6655C32.355 50.6655 32.5034 50.604 32.6128 50.4946C32.7222 50.3852 32.7836 50.2369 32.7836 50.0822V28.4988H34.8253V27.3322H19.6586V23.4874ZM19.0753 21.7666C18.9961 21.7666 18.9177 21.7827 18.845 21.814C18.7722 21.8453 18.7066 21.8911 18.6521 21.9486C18.3386 22.2804 17.9331 22.5108 17.4877 22.6104C17.0422 22.7099 16.5771 22.6739 16.1523 22.5071C15.7274 22.3403 15.3621 22.0502 15.1034 21.6742C14.8446 21.2982 14.7043 20.8533 14.7003 20.3969C14.7001 19.883 14.8751 19.3843 15.1963 18.9832C15.5176 18.582 15.966 18.3023 16.4675 18.1902C16.5461 18.1721 16.6201 18.1379 16.6848 18.0898C16.7495 18.0416 16.8035 17.9806 16.8434 17.9106C16.8834 17.8405 16.9083 17.7629 16.9168 17.6827C16.9252 17.6026 16.9169 17.5215 16.8925 17.4447C16.8232 17.2251 16.788 16.9962 16.7881 16.7659C16.7949 16.1638 17.0388 15.5886 17.4671 15.1651C17.8953 14.7417 18.4732 14.5042 19.0755 14.5042C19.6777 14.5042 20.2556 14.7417 20.6838 15.1651C21.1121 15.5886 21.3561 16.1638 21.3629 16.7659C21.3629 16.9962 21.3277 17.2251 21.2584 17.4447C21.2342 17.5214 21.2261 17.6023 21.2347 17.6823C21.2432 17.7624 21.2682 17.8398 21.3082 17.9096C21.3481 17.9795 21.402 18.0404 21.4666 18.0884C21.5312 18.1364 21.605 18.1706 21.6834 18.1887C22.0273 18.2712 22.3472 18.4329 22.6175 18.661C22.8878 18.8891 23.101 19.1772 23.2402 19.5023C23.3794 19.8275 23.4406 20.1806 23.419 20.5336C23.3975 20.8867 23.2937 21.2297 23.116 21.5355C22.9383 21.8413 22.6915 22.1013 22.3955 22.2948C22.0994 22.4883 21.7622 22.6099 21.4108 22.6499C21.0594 22.6899 20.7035 22.6472 20.3716 22.5252C20.0396 22.4033 19.7407 22.2054 19.4988 21.9474C19.4442 21.8902 19.3784 21.8446 19.3056 21.8136C19.2328 21.7825 19.1545 21.7667 19.0753 21.7669V21.7666ZM37.1662 36.2694C36.7873 36.4079 36.3717 36.4091 35.992 36.2726L37.4521 50.1431C37.4671 50.2867 37.535 50.4196 37.6424 50.5161C37.7498 50.6126 37.8892 50.6658 38.0336 50.6655C38.0538 50.6655 38.0748 50.6655 38.0952 50.6623C38.1714 50.6543 38.2453 50.6313 38.3127 50.5947C38.3801 50.5581 38.4395 50.5086 38.4878 50.449C38.536 50.3895 38.572 50.3209 38.5937 50.2474C38.6154 50.1739 38.6224 50.0968 38.6144 50.0206L37.1662 36.2694Z" fill="#76BD43"/>
<path d="M36.5749 35.208C36.7296 35.208 36.878 35.1465 36.9873 35.0372C37.0967 34.9278 37.1582 34.7794 37.1582 34.6247V23.833H44.1582C44.3129 23.833 44.4613 23.7716 44.5707 23.6622C44.6801 23.5528 44.7415 23.4044 44.7415 23.2497V13.9163C44.7415 13.7616 44.6801 13.6133 44.5707 13.5039C44.4613 13.3945 44.3129 13.333 44.1582 13.333H28.9915C28.8368 13.333 28.6885 13.3945 28.5791 13.5039C28.4697 13.6133 28.4082 13.7616 28.4082 13.9163V23.2497C28.4082 23.4044 28.4697 23.5528 28.5791 23.6622C28.6885 23.7716 28.8368 23.833 28.9915 23.833H35.9915V34.6247C35.9915 34.7794 36.053 34.9278 36.1624 35.0372C36.2718 35.1465 36.4202 35.208 36.5749 35.208ZM29.5749 22.6663V14.4997H43.5749V22.6663H29.5749Z" fill="#76BD43"/>
<path d="M31.3245 16.5408C31.6467 16.5408 31.9079 16.2796 31.9079 15.9575C31.9079 15.6353 31.6467 15.3741 31.3245 15.3741C31.0024 15.3741 30.7412 15.6353 30.7412 15.9575C30.7412 16.2796 31.0024 16.5408 31.3245 16.5408Z" fill="#76BD43"/>
<path d="M41.8245 16.5408C42.1467 16.5408 42.4079 16.2796 42.4079 15.9575C42.4079 15.6353 42.1467 15.3741 41.8245 15.3741C41.5024 15.3741 41.2412 15.6353 41.2412 15.9575C41.2412 16.2796 41.5024 16.5408 41.8245 16.5408Z" fill="#76BD43"/>
<path d="M41.8245 21.7908C42.1467 21.7908 42.4079 21.5296 42.4079 21.2075C42.4079 20.8853 42.1467 20.6241 41.8245 20.6241C41.5024 20.6241 41.2412 20.8853 41.2412 21.2075C41.2412 21.5296 41.5024 21.7908 41.8245 21.7908Z" fill="#76BD43"/>
<path d="M31.3245 21.7908C31.6467 21.7908 31.9079 21.5296 31.9079 21.2075C31.9079 20.8853 31.6467 20.6241 31.3245 20.6241C31.0024 20.6241 30.7412 20.8853 30.7412 21.2075C30.7412 21.5296 31.0024 21.7908 31.3245 21.7908Z" fill="#76BD43"/>
<path d="M38.3245 19.1663H34.8245C34.6698 19.1663 34.5215 19.2278 34.4121 19.3372C34.3027 19.4466 34.2412 19.595 34.2412 19.7497C34.2412 19.9044 34.3027 20.0528 34.4121 20.1622C34.5215 20.2715 34.6698 20.333 34.8245 20.333H38.3245C38.4793 20.333 38.6276 20.2715 38.737 20.1622C38.8464 20.0528 38.9079 19.9044 38.9079 19.7497C38.9079 19.595 38.8464 19.4466 38.737 19.3372C38.6276 19.2278 38.4793 19.1663 38.3245 19.1663ZM39.1995 16.833H33.9495C33.7948 16.833 33.6465 16.8945 33.5371 17.0039C33.4277 17.1133 33.3662 17.2616 33.3662 17.4163C33.3662 17.5711 33.4277 17.7194 33.5371 17.8288C33.6465 17.9382 33.7948 17.9997 33.9495 17.9997H39.1995C39.3543 17.9997 39.5026 17.9382 39.612 17.8288C39.7214 17.7194 39.7829 17.5711 39.7829 17.4163C39.7829 17.2616 39.7214 17.1133 39.612 17.0039C39.5026 16.8945 39.3543 16.833 39.1995 16.833Z" fill="#76BD43"/>
</g>
<defs>
<clipPath id="clip0_0_720">
<rect width="37.3333" height="37.3333" fill="white" transform="translate(13.5332 13.3331)"/>
</clipPath>
</defs>
</svg>
