<svg width="65" height="64" viewBox="0 0 65 64" fill="none" xmlns="http://www.w3.org/2000/svg">
<rect x="0.400391" width="64" height="64" rx="32" fill="#76BD43" fill-opacity="0.15"/>
<g clip-path="url(#clip0_0_710)">
<path d="M15.6429 41.2175C15.5636 41.2672 15.4976 41.3355 15.4506 41.4165L13.81 44.2903C13.7598 44.3784 13.7334 44.4781 13.7334 44.5795C13.7334 46.7658 20.2147 47.7491 24.8167 47.7491C29.4187 47.7491 35.9001 46.7658 35.9001 44.5795C35.9 44.4781 35.8736 44.3785 35.8234 44.2903L34.1828 41.4165C34.1358 41.3355 34.0698 41.2671 33.9904 41.2173C32.9117 39.6998 28.7368 38.9991 24.8167 38.9991C20.8965 38.9991 16.7215 39.6998 15.6429 41.2175ZM33.7756 43.0568L34.6901 44.6586C34.2395 45.3003 30.7275 46.5825 24.8167 46.5825C18.8908 46.5825 15.376 45.2936 14.9408 44.6631L15.8579 43.0568C17.2014 44.3979 21.1234 45.0192 24.8167 45.0192C28.5101 45.0192 32.4321 44.3979 33.7756 43.0568ZM24.8167 40.1658C30.2769 40.1658 33.0928 41.4578 33.0928 42.0091C33.0928 42.5604 30.2769 43.8525 24.8167 43.8525C19.3565 43.8525 16.5407 42.5604 16.5407 42.0091C16.5407 41.4578 19.3565 40.1658 24.8167 40.1658Z" fill="#76BD43"/>
<path d="M24.8171 43.0826C30.3587 43.0826 30.3587 42.3237 30.3587 41.916C30.3587 41.7944 30.3207 41.676 30.2501 41.5771C30.1795 41.4782 30.0798 41.4038 29.9649 41.3643C29.8499 41.3248 29.7256 41.3222 29.6091 41.3568C29.4926 41.3914 29.3898 41.4615 29.3151 41.5574C28.8876 41.712 27.2826 41.916 24.8171 41.916C22.3516 41.916 20.7465 41.712 20.319 41.5574C20.2443 41.4615 20.1415 41.3914 20.025 41.3568C19.9086 41.3222 19.7842 41.3248 19.6693 41.3643C19.5543 41.4038 19.4546 41.4782 19.384 41.5771C19.3134 41.676 19.2754 41.7944 19.2754 41.916C19.2754 42.3237 19.2754 43.0826 24.8171 43.0826ZM48.0228 39.6872C48.1319 39.7969 48.2801 39.8587 48.4348 39.8591C48.5896 39.8595 48.7381 39.7984 48.8478 39.6893C48.9575 39.5802 49.0193 39.432 49.0197 39.2772C49.0201 39.1225 48.9591 38.974 48.8499 38.8643L48.4358 38.4482C48.3267 38.3386 48.1785 38.2768 48.0238 38.2765C47.8692 38.2761 47.7207 38.3372 47.6111 38.4463C47.5014 38.5554 47.4396 38.7035 47.4391 38.8582C47.4387 39.0128 47.4997 39.1613 47.6087 39.271L48.0228 39.6872Z" fill="#76BD43"/>
<path d="M43.8684 25.5655C44.074 25.6382 44.296 25.6506 44.5084 25.6012C44.7207 25.5518 44.9145 25.4427 45.0668 25.2867L45.481 24.8707L45.4813 24.8705C45.8092 24.5396 45.9931 24.0927 45.9931 23.6268C45.9931 23.161 45.8092 22.714 45.4813 22.3831L39.89 16.7655C39.7273 16.6019 39.5338 16.472 39.3206 16.3834C39.1075 16.2947 38.879 16.2491 38.6481 16.2491C38.4173 16.2492 38.1888 16.2948 37.9757 16.3834C37.7625 16.4721 37.5691 16.602 37.4063 16.7657L36.9922 17.1818C36.8398 17.3363 36.7333 17.53 36.6845 17.7414C36.6358 17.9528 36.6466 18.1736 36.7159 18.3792L36.6213 20.6753L36.2559 21.0424C36.0584 20.986 35.8493 20.9841 35.6508 21.037C35.4522 21.0899 35.2718 21.1955 35.1285 21.3428L34.0741 22.4022L33.7716 22.1225C33.445 21.824 33.0158 21.6632 32.5734 21.6736C32.1311 21.684 31.7099 21.8648 31.3977 22.1783C31.0855 22.4918 30.9064 22.9137 30.8978 23.3561C30.8892 23.7985 31.0518 24.227 31.3517 24.5524L31.631 24.8569L30.5729 25.92C30.4288 26.0659 30.3256 26.247 30.2735 26.4453C30.2215 26.6437 30.2225 26.8522 30.2764 27.05L29.8056 27.5229L27.5264 27.6178C27.3208 27.545 27.0986 27.5326 26.8862 27.582C26.6738 27.6314 26.4799 27.7406 26.3275 27.8966L25.9137 28.3126C25.5856 28.6434 25.4014 29.0904 25.4014 29.5563C25.4013 30.0222 25.5853 30.4693 25.9134 30.8002L31.5046 36.4174C31.6673 36.5812 31.8608 36.7111 32.074 36.7998C32.2871 36.8885 32.5156 36.9341 32.7465 36.9341C32.9773 36.9341 33.2059 36.8885 33.419 36.7998C33.6321 36.7111 33.8256 36.5812 33.9883 36.4174L34.4022 36.0014C34.5548 35.8469 34.6614 35.6531 34.7102 35.4415C34.7589 35.2299 34.748 35.009 34.6785 34.8033L34.7731 32.5079L35.2421 32.0367C35.4397 32.0932 35.6489 32.0951 35.8475 32.0422C36.046 31.9893 36.2265 31.8836 36.3698 31.7363L37.1876 30.9146L46.4614 41.0249C46.7018 41.2949 46.9947 41.5131 47.3223 41.6661C47.6499 41.8191 48.0052 41.9037 48.3666 41.9148C48.3922 41.9155 48.4176 41.9158 48.4432 41.9158C48.7885 41.9169 49.1305 41.8492 49.4493 41.7166C49.7681 41.5839 50.0572 41.3891 50.2998 41.1433L50.2995 41.1435C50.5532 40.8901 50.7522 40.5873 50.8841 40.2538C51.0159 39.9204 51.0778 39.5633 51.0659 39.2049C51.0554 38.8448 50.9722 38.4904 50.8212 38.1632C50.6702 37.836 50.4547 37.5428 50.1875 37.301L40.1076 27.9809L40.9254 27.1592C41.0693 27.0132 41.1725 26.8321 41.2244 26.6338C41.2764 26.4356 41.2754 26.2271 41.2215 26.0294L41.5888 25.6604L43.8684 25.5655ZM38.2335 17.5887C38.2877 17.5339 38.3523 17.4905 38.4235 17.4608C38.4947 17.4311 38.571 17.4158 38.6481 17.4158C38.7253 17.4158 38.8016 17.4311 38.8728 17.4607C38.944 17.4904 39.0086 17.5338 39.0629 17.5886L44.6541 23.2063C44.7651 23.3182 44.8274 23.4694 44.8274 23.627C44.8274 23.7846 44.7651 23.9358 44.6541 24.0477L44.2388 24.4635L37.8193 18.0047L38.2335 17.5887ZM32.2281 22.9981C32.2785 22.9473 32.3385 22.9071 32.4045 22.8797C32.4706 22.8522 32.5414 22.8382 32.6129 22.8383C32.7497 22.8383 32.8816 22.8895 32.9826 22.9817L33.2507 23.2295L32.4549 24.0291L32.2144 23.767C32.1178 23.6614 32.0654 23.5228 32.0679 23.3798C32.0705 23.2367 32.1278 23.1001 32.2281 22.9981ZM33.1612 35.5946C33.0498 35.7019 32.9011 35.7619 32.7465 35.7619C32.5918 35.7618 32.4431 35.7018 32.3318 35.5944L26.7403 29.977C26.6293 29.8651 26.567 29.7138 26.567 29.5562C26.5671 29.3986 26.6295 29.2474 26.7405 29.1356L27.1558 28.7196L33.5753 35.1784L33.1612 35.5946ZM33.7861 31.8456C33.6833 31.9491 33.6229 32.0874 33.6169 32.2331L33.5645 33.5043L28.8142 28.7318L30.0822 28.679C30.2288 28.673 30.3678 28.6119 30.4713 28.5078L30.9861 27.9906L34.3047 31.3246L33.7861 31.8456ZM35.5415 30.9132L31.3998 26.7432L35.9568 22.1658L40.0982 26.3269C40.0993 26.3282 40.1 26.3299 40.1 26.3316C40.1 26.3333 40.0993 26.335 40.0982 26.3363L35.5415 30.9132ZM49.402 38.1633C49.5541 38.2987 49.6768 38.464 49.7624 38.6488C49.8481 38.8336 49.8948 39.0341 49.8998 39.2377C49.9066 39.4378 49.8722 39.6371 49.7988 39.8234C49.7253 40.0096 49.6144 40.1787 49.4729 40.3203L49.4726 40.3205C49.3333 40.4625 49.1659 40.574 48.9811 40.6477C48.7963 40.7214 48.5982 40.7557 48.3993 40.7486C48.1953 40.743 47.9947 40.6952 47.8101 40.6082C47.6255 40.5211 47.461 40.3967 47.3269 40.2429L38.0114 30.0869L39.2841 28.8082L49.402 38.1633ZM40.9228 24.6754L40.5118 25.0884L37.1934 21.7543L37.6082 21.3375C37.7113 21.234 37.7718 21.0957 37.7777 20.9498L37.8301 19.679L40.4002 22.261L42.5802 24.4514L41.3122 24.5042C41.1655 24.5103 41.0265 24.5714 40.9228 24.6754Z" fill="#76BD43"/>
<path d="M36.3726 25.0872C36.263 25.1964 36.2012 25.3446 36.2008 25.4993C36.2004 25.6539 36.2615 25.8024 36.3706 25.9121C36.4534 25.9937 36.5192 26.0909 36.5644 26.198C36.6096 26.3052 36.6332 26.4201 36.6339 26.5364C36.6346 26.6527 36.6124 26.7679 36.5685 26.8756C36.5246 26.9832 36.46 27.0812 36.3782 27.1638C36.2964 27.2465 36.1992 27.3122 36.092 27.3572C35.9848 27.4023 35.8698 27.4257 35.7535 27.4262C35.6373 27.4268 35.522 27.4044 35.4144 27.3604C35.3068 27.3163 35.209 27.2515 35.1264 27.1696C35.0724 27.1154 35.0082 27.0723 34.9375 27.0428C34.8668 27.0133 34.791 26.9981 34.7144 26.9979C34.6378 26.9978 34.5619 27.0127 34.4911 27.0419C34.4202 27.071 34.3558 27.1139 34.3016 27.1679C34.2473 27.222 34.2042 27.2862 34.1747 27.3569C34.1453 27.4276 34.13 27.5034 34.1299 27.58C34.1297 27.6566 34.1447 27.7325 34.1738 27.8033C34.203 27.8741 34.2458 27.9385 34.2999 27.9928C34.4897 28.1838 34.7155 28.3354 34.9642 28.4388C35.2128 28.5423 35.4795 28.5955 35.7488 28.5955C36.0182 28.5955 36.2848 28.5422 36.5335 28.4388C36.7821 28.3353 37.0079 28.1837 37.1977 27.9926C37.5804 27.6064 37.795 27.0846 37.795 26.5409C37.795 25.9972 37.5804 25.4755 37.1977 25.0892C37.1437 25.0349 37.0795 24.9917 37.0088 24.9621C36.9381 24.9326 36.8622 24.9173 36.7856 24.9171C36.7089 24.9169 36.633 24.9319 36.5621 24.9611C36.4913 24.9902 36.4269 25.0331 36.3726 25.0872Z" fill="#76BD43"/>
</g>
<defs>
<clipPath id="clip0_0_710">
<rect width="37.3333" height="37.3333" fill="white" transform="translate(13.7334 13.3331)"/>
</clipPath>
</defs>
</svg>
