<svg width="120" height="120" viewBox="0 0 120 120" fill="none" xmlns="http://www.w3.org/2000/svg">
<rect width="120" height="120" rx="60" fill="white"/>
<rect width="120" height="120" rx="60" fill="#ED1C24" fill-opacity="0.05"/>
<path d="M62.4346 78.3584C64.1251 80.9341 67.08 81.1136 68.2771 80.8697C70.416 80.4339 71.1523 79.1197 72.3351 77.383C73.5178 75.6454 76.1904 75.1789 78.145 73.0688C80.0995 70.9587 78.3389 67.5421 77.6967 65.3379C77.0544 63.1328 77.0083 60.0281 76.7021 57.5609C76.3959 55.0937 73.3632 55.0131 72.1546 56.7037C71.3174 57.8749 71.2464 59.4464 71.7773 62.0624L71.7859 62.1267C68.8551 60.1261 67.6253 59.1229 65.2167 56.5827C63.9782 55.2771 62.6112 53.5107 60.937 50.8342C59.209 48.0713 54.3735 49.8541 56.2349 54.5129C57.817 58.4729 60.5904 60.6349 62.5786 62.7613C61.343 62.4281 59.856 65.6489 59.9731 67.1821L59.9482 67.2454C58.5917 68.0461 57.1018 70.2944 57.8554 72.0877L57.8486 72.1126C56.736 73.2877 56.7091 76.0937 57.8141 77.1939C58.919 78.2941 62.4346 78.3584 62.4346 78.3584Z" fill="white"/>
<path d="M67.3683 81.4346C65.7017 81.4346 63.4265 80.7463 62.0336 78.6228C61.8886 78.401 61.95 78.1034 62.1718 77.9585C62.3936 77.8125 62.6912 77.8749 62.8361 78.0967C64.447 80.5524 67.2406 80.5927 68.1814 80.4007C69.968 80.0369 70.6476 79.0269 71.6777 77.4996C71.7632 77.3738 71.8496 77.2452 71.9388 77.1137C72.6022 76.1393 73.6515 75.5479 74.7632 74.922C75.8048 74.3354 76.8819 73.7277 77.7929 72.7437C79.207 71.2173 78.3497 68.7463 77.6604 66.761C77.502 66.3041 77.3523 65.873 77.2361 65.4727C76.7849 63.9233 76.6227 61.9802 76.4652 60.1015C76.3923 59.225 76.3222 58.3965 76.2262 57.6209C76.1052 56.6445 75.534 56.2807 75.0771 56.1473C74.2179 55.8967 73.1446 56.2596 72.5254 57.0103C71.4732 58.2833 71.8937 60.3069 72.5302 63.3693C72.5993 63.7005 72.6704 64.0433 72.7424 64.3975C72.7673 64.5223 72.7424 64.6519 72.6723 64.7585C71.4819 66.5556 70.9788 69.0285 71.4761 70.6385C71.5548 70.8919 71.4128 71.1607 71.1593 71.2385C70.9059 71.3162 70.6371 71.1751 70.5593 70.9217C69.9996 69.1111 70.5056 66.3991 71.7632 64.3975C71.7046 64.1124 71.647 63.8349 71.5913 63.5642C70.9232 60.3492 70.4412 58.0269 71.7872 56.3978C72.654 55.3485 74.118 54.8666 75.3478 55.2247C76.3702 55.5223 77.0384 56.3527 77.1814 57.5018C77.2803 58.2967 77.3504 59.1338 77.4243 60.0209C77.5779 61.8525 77.7363 63.7466 78.1606 65.2039C78.27 65.5812 78.416 66.0017 78.5705 66.4461C79.303 68.5562 80.3052 71.4458 78.4995 73.3956C77.4857 74.49 76.2905 75.1639 75.2364 75.7581C74.1824 76.3524 73.2713 76.865 72.7347 77.6541C72.6464 77.7837 72.56 77.9114 72.4764 78.0362C71.3984 79.6356 70.5468 80.8989 68.3763 81.3415C68.0796 81.4001 67.7388 81.4346 67.3683 81.4346Z" fill="#131313"/>
<path d="M66.5601 73.323C66.1118 73.323 65.6241 73.2107 65.1125 72.9409C62.8065 71.7246 60.5534 70.2971 59.6788 68.1083C59.2862 67.1252 59.3688 65.9425 59.9121 64.779C60.3614 63.8161 61.0613 63.0174 61.8216 62.5701C59.7537 60.6769 56.8833 57.6645 55.7841 54.6789C54.7224 51.796 55.9013 50.0104 57.2337 49.3576C58.7179 48.6299 60.4459 49.1445 61.3444 50.5797C62.8747 53.0257 64.2158 54.8286 65.5656 56.2523C68.0097 58.8299 69.2068 59.7851 72.0571 61.7301C72.276 61.8798 72.3326 62.1784 72.1828 62.3973C72.0331 62.6161 71.7345 62.6718 71.5156 62.523C68.6462 60.5637 67.355 59.5345 64.8686 56.9128C63.4737 55.4421 62.0952 53.5912 60.5304 51.0885C59.8142 49.9441 58.5422 49.7848 57.6561 50.2187C56.6827 50.6958 55.8446 52.0629 56.6856 54.3467C58.3512 58.8712 64.644 63.7096 64.7073 63.7585C64.7275 63.7739 64.7467 63.7912 64.764 63.8094C65.9707 65.0824 67.8053 67.2693 68.9832 69.0635C69.6379 70.0609 69.4843 71.4299 68.6097 72.3918C68.1422 72.9073 67.4222 73.323 66.5601 73.323ZM62.5905 63.2565C61.9051 63.5368 61.2062 64.2779 60.7828 65.1851C60.3585 66.0933 60.2817 67.0293 60.5707 67.7521C61.3301 69.652 63.4181 70.9605 65.5608 72.0913C66.4181 72.5435 67.2926 72.4149 67.8993 71.7467C68.3736 71.2254 68.6635 70.3278 68.1806 69.5915C67.044 67.8587 65.2718 65.7448 64.0929 64.4987C63.9413 64.3816 63.372 63.9371 62.5905 63.2565Z" fill="#131313"/>
<path d="M64.1088 75.7104C63.7814 75.7104 63.4205 75.6634 63.0259 75.5703C61.3661 75.1776 57.481 74.0016 57.2621 71.57C57.0989 69.7556 58.1261 67.7636 59.7024 66.8324C59.9309 66.698 60.2246 66.7738 60.36 67.0013C60.4944 67.2298 60.4186 67.5236 60.191 67.6589C58.9162 68.4116 58.0867 70.0196 58.2182 71.4836C58.3296 72.72 60.2563 73.9277 63.2467 74.6352C63.8006 74.7668 64.5446 74.8503 64.9402 74.5076C65.3357 74.1648 65.3578 73.4208 65.3078 72.8564C65.2838 72.5924 65.4787 72.3591 65.7427 72.3351C66.0077 72.3111 66.24 72.506 66.264 72.77C66.3667 73.9152 66.1334 74.7437 65.569 75.2324C65.2022 75.5511 64.7136 75.7104 64.1088 75.7104Z" fill="#131313"/>
<path d="M62.0453 78.8136C60.4901 78.8136 58.3579 78.4132 57.4747 77.5339C56.197 76.2619 56.2104 73.1448 57.4987 71.7825C57.6811 71.5905 57.9845 71.5819 58.1775 71.7643C58.3695 71.9467 58.3781 72.25 58.1957 72.443C57.2626 73.4289 57.2367 75.9441 58.1515 76.8542C59.0655 77.7633 62.4005 78.0561 63.1829 77.7268C63.8271 77.4561 64.1112 76.3752 63.8031 75.3662C63.7253 75.1128 63.8683 74.844 64.1218 74.7672C64.3752 74.6894 64.644 74.8324 64.7208 75.0859C65.1826 76.595 64.6699 78.1435 63.5544 78.612C63.2386 78.7444 62.6914 78.8136 62.0453 78.8136Z" fill="#131313"/>
<path d="M55.4456 47.3831L54.1064 38.4004L57.9234 38.6452L55.4456 47.3831Z" fill="#ED1C24"/>
<path d="M52.9522 48.412L45.0293 43.971L47.5608 41.1035L52.9522 48.412Z" fill="#ED1C24"/>
<path d="M51.7565 51.577L42.912 53.6401L42.8467 49.8164L51.7565 51.577Z" fill="#ED1C24"/>
</svg>
