<svg width="96" height="96" viewBox="0 0 96 96" fill="none" xmlns="http://www.w3.org/2000/svg">
<rect width="96" height="96" rx="48" fill="#77BE43" fill-opacity="0.15"/>
<path d="M48 48.0001C53.3572 48.0001 57.7 43.6573 57.7 38.3001C57.7 32.9429 53.3572 28.6001 48 28.6001C42.6429 28.6001 38.3 32.9429 38.3 38.3001C38.3 43.6573 42.6429 48.0001 48 48.0001Z" stroke="#77BE43" stroke-width="2.91" stroke-linecap="round" stroke-linejoin="round"/>
<path d="M31.3352 67.4001C31.3352 59.8923 38.8042 53.8201 47.9998 53.8201C49.8622 53.8201 51.6664 54.0723 53.3542 54.5379" stroke="#77BE43" stroke-width="2.91" stroke-linecap="round" stroke-linejoin="round"/>
<path d="M67.3999 59.6401C67.3999 61.0951 66.9925 62.4725 66.2747 63.6365C65.8673 64.3349 65.3435 64.9557 64.7421 65.4601C63.3841 66.6823 61.5993 67.4001 59.6399 67.4001C56.8075 67.4001 54.3437 65.8869 53.0051 63.6365C52.2873 62.4725 51.8799 61.0951 51.8799 59.6401C51.8799 57.1957 53.0051 55.0035 54.7899 53.5873C56.1285 52.5203 57.8163 51.8801 59.6399 51.8801C63.9273 51.8801 67.3999 55.3527 67.3999 59.6401Z" stroke="#77BE43" stroke-width="2.91" stroke-miterlimit="10" stroke-linecap="round" stroke-linejoin="round"/>
<path d="M56.6133 59.6402L58.5339 61.5608L62.6661 57.739" stroke="#77BE43" stroke-width="2.91" stroke-linecap="round" stroke-linejoin="round"/>
</svg>
