<svg width="24" height="24" viewBox="0 0 24 24" fill="none" xmlns="http://www.w3.org/2000/svg">
<path d="M17.9997 13.9991C17.4088 14.003 16.8262 14.1378 16.2937 14.3937C15.7611 14.6496 15.2919 15.0203 14.9197 15.4791L9.81966 13.1291C10.0595 12.3949 10.0595 11.6034 9.81966 10.8691L14.9197 8.51914C15.5213 9.2451 16.36 9.73522 17.2878 9.90298C18.2156 10.0707 19.1729 9.90536 19.9906 9.43604C20.8084 8.96672 21.434 8.22361 21.7572 7.33788C22.0804 6.45215 22.0803 5.48072 21.757 4.59504C21.4336 3.70937 20.8078 2.96638 19.99 2.49721C19.1722 2.02803 18.2149 1.86283 17.2871 2.03076C16.3593 2.19869 15.5207 2.68896 14.9192 3.41503C14.3177 4.14111 13.992 5.05632 13.9997 5.99914C14.0027 6.23737 14.0261 6.47491 14.0697 6.70914L8.78966 9.13914C8.22674 8.58872 7.51391 8.21665 6.74047 8.06957C5.96703 7.92248 5.16738 8.00691 4.44171 8.31227C3.71604 8.61764 3.09662 9.13036 2.66106 9.7862C2.2255 10.442 1.99316 11.2118 1.99316 11.9991C1.99316 12.7864 2.2255 13.5562 2.66106 14.2121C3.09662 14.8679 3.71604 15.3806 4.44171 15.686C5.16738 15.9914 5.96703 16.0758 6.74047 15.9287C7.51391 15.7816 8.22674 15.4096 8.78966 14.8591L14.0697 17.2891C14.0261 17.5234 14.0027 17.7609 13.9997 17.9991C13.9997 18.7903 14.2343 19.5636 14.6738 20.2214C15.1133 20.8792 15.738 21.3919 16.4689 21.6947C17.1998 21.9974 18.0041 22.0766 18.78 21.9223C19.5559 21.7679 20.2687 21.387 20.8281 20.8276C21.3875 20.2682 21.7685 19.5554 21.9228 18.7795C22.0771 18.0036 21.9979 17.1993 21.6952 16.4684C21.3924 15.7375 20.8797 15.1128 20.2219 14.6733C19.5641 14.2337 18.7908 13.9991 17.9997 13.9991ZM17.9997 3.99914C18.3952 3.99914 18.7819 4.11644 19.1108 4.3362C19.4397 4.55596 19.696 4.86832 19.8474 5.23377C19.9988 5.59922 20.0384 6.00136 19.9612 6.38932C19.8841 6.77728 19.6936 7.13365 19.4139 7.41335C19.1342 7.69306 18.7778 7.88354 18.3898 7.96071C18.0019 8.03788 17.5997 7.99827 17.2343 7.8469C16.8688 7.69552 16.5565 7.43918 16.3367 7.11028C16.117 6.78138 15.9997 6.3947 15.9997 5.99914C15.9997 5.4687 16.2104 4.96 16.5854 4.58492C16.9605 4.20985 17.4692 3.99914 17.9997 3.99914ZM5.99966 13.9991C5.6041 13.9991 5.21742 13.8818 4.88852 13.6621C4.55962 13.4423 4.30328 13.13 4.1519 12.7645C4.00053 12.3991 3.96092 11.9969 4.03809 11.609C4.11526 11.221 4.30574 10.8646 4.58545 10.5849C4.86515 10.3052 5.22152 10.1147 5.60948 10.0376C5.99744 9.9604 6.39958 10 6.76503 10.1514C7.13048 10.3028 7.44284 10.5591 7.6626 10.888C7.88236 11.2169 7.99966 11.6036 7.99966 11.9991C7.99966 12.5296 7.78895 13.0383 7.41388 13.4134C7.0388 13.7884 6.5301 13.9991 5.99966 13.9991ZM17.9997 19.9991C17.6041 19.9991 17.2174 19.8818 16.8885 19.6621C16.5596 19.4423 16.3033 19.13 16.1519 18.7645C16.0005 18.3991 15.9609 17.9969 16.0381 17.609C16.1153 17.221 16.3057 16.8646 16.5854 16.5849C16.8652 16.3052 17.2215 16.1147 17.6095 16.0376C17.9974 15.9604 18.3996 16 18.765 16.1514C19.1305 16.3028 19.4428 16.5591 19.6626 16.888C19.8824 17.2169 19.9997 17.6036 19.9997 17.9991C19.9997 18.5296 19.7889 19.0383 19.4139 19.4134C19.0388 19.7884 18.5301 19.9991 17.9997 19.9991Z" fill="#77BE43"/>
</svg>
