<svg width="96" height="96" viewBox="0 0 96 96" fill="none" xmlns="http://www.w3.org/2000/svg">
<rect width="96" height="96" rx="48" fill="white"/>
<rect width="96" height="96" rx="48" fill="#E3334F" fill-opacity="0.05"/>
<path d="M48.0002 53.7746C47.6977 53.7746 47.4502 53.5271 47.4502 53.2246V45.5246C47.4502 45.2221 47.6977 44.9746 48.0002 44.9746C48.3027 44.9746 48.5502 45.2221 48.5502 45.5246V53.2246C48.5502 53.5271 48.3027 53.7746 48.0002 53.7746Z" fill="#131313"/>
<path d="M55.1498 60.1004C55.0178 60.1004 54.8913 60.0564 54.7868 59.9629L47.6368 53.6379C47.4113 53.4344 47.3893 53.0879 47.5873 52.8624C47.7908 52.6369 48.1373 52.6149 48.3628 52.8129L55.5128 59.1379C55.7383 59.3414 55.7603 59.6879 55.5623 59.9134C55.4523 60.0399 55.3038 60.1004 55.1498 60.1004Z" fill="#131313"/>
<path d="M40.8496 60.1006C40.6956 60.1006 40.5471 60.0401 40.4371 59.9136C40.2336 59.6881 40.2556 59.3361 40.4866 59.1381L47.6366 52.8131C47.8621 52.6096 48.2086 52.6316 48.4121 52.8626C48.6156 53.0881 48.5936 53.4401 48.3626 53.6381L41.2126 59.9631C41.1081 60.0566 40.9816 60.1006 40.8496 60.1006Z" fill="#131313"/>
<path d="M54.6004 45.5258H41.4004V44.2828C41.4004 41.3238 43.7984 38.9258 46.7574 38.9258H49.2489C52.2079 38.9258 54.6059 41.3238 54.6059 44.2828V45.5258H54.6004Z" fill="#F4D2B1"/>
<path d="M54.5996 46.075H41.3996C41.0971 46.075 40.8496 45.8275 40.8496 45.525V44.282C40.8496 41.026 43.5006 38.375 46.7566 38.375H49.2481C52.4986 38.375 55.1496 41.026 55.1496 44.282V45.525C55.1496 45.8275 54.9021 46.075 54.5996 46.075ZM41.9496 44.975H54.0496V44.282C54.0496 41.631 51.8936 39.475 49.2426 39.475H46.7511C44.1001 39.475 41.9441 41.631 41.9441 44.282V44.975H41.9496Z" fill="#131313"/>
<path d="M47.9998 37.5504C49.9742 37.5504 51.5748 35.9498 51.5748 33.9754C51.5748 32.001 49.9742 30.4004 47.9998 30.4004C46.0254 30.4004 44.4248 32.001 44.4248 33.9754C44.4248 35.9498 46.0254 37.5504 47.9998 37.5504Z" fill="#F4D2B1"/>
<path d="M48 38.0996C45.723 38.0996 43.875 36.2516 43.875 33.9746C43.875 31.6976 45.723 29.8496 48 29.8496C50.277 29.8496 52.125 31.6976 52.125 33.9746C52.125 36.2516 50.277 38.0996 48 38.0996ZM48 30.9496C46.3335 30.9496 44.975 32.3081 44.975 33.9746C44.975 35.6411 46.3335 36.9996 48 36.9996C49.6665 36.9996 51.025 35.6411 51.025 33.9746C51.025 32.3081 49.6665 30.9496 48 30.9496Z" fill="#131313"/>
<path d="M43.6004 64.357V65.6H30.4004V64.357C30.4004 61.398 32.7984 59 35.7574 59H38.2434C39.0244 59 39.7669 59.165 40.4324 59.4675C42.3024 60.3035 43.6004 62.179 43.6004 64.357Z" fill="#E3334F"/>
<path d="M43.5996 66.1492H30.3996C30.0971 66.1492 29.8496 65.9017 29.8496 65.5992V64.3562C29.8496 61.1002 32.5006 58.4492 35.7566 58.4492H38.2426C39.0896 58.4492 39.9036 58.6252 40.6571 58.9662C42.7746 59.9122 44.1496 62.0297 44.1496 64.3562V65.5992C44.1496 65.9017 43.9021 66.1492 43.5996 66.1492ZM30.9496 65.0492H43.0496V64.3562C43.0496 62.4642 41.9331 60.7427 40.2061 59.9672C39.5956 59.6922 38.9356 59.5492 38.2426 59.5492H35.7566C33.1056 59.5492 30.9496 61.7052 30.9496 64.3562V65.0492Z" fill="#131313"/>
<path d="M36.9998 57.6246C38.9742 57.6246 40.5748 56.024 40.5748 54.0496C40.5748 52.0752 38.9742 50.4746 36.9998 50.4746C35.0254 50.4746 33.4248 52.0752 33.4248 54.0496C33.4248 56.024 35.0254 57.6246 36.9998 57.6246Z" fill="#E3334F"/>
<path d="M37 58.1758C34.723 58.1758 32.875 56.3278 32.875 54.0508C32.875 51.7738 34.723 49.9258 37 49.9258C39.277 49.9258 41.125 51.7738 41.125 54.0508C41.125 56.3278 39.277 58.1758 37 58.1758ZM37 51.0258C35.3335 51.0258 33.975 52.3843 33.975 54.0508C33.975 55.7173 35.3335 57.0758 37 57.0758C38.6665 57.0758 40.025 55.7173 40.025 54.0508C40.025 52.3843 38.6665 51.0258 37 51.0258Z" fill="#131313"/>
<path d="M65.6004 64.357V65.6H52.4004V64.357C52.4004 62.179 53.6984 60.3035 55.5684 59.4675C56.2339 59.165 56.9764 59 57.7574 59H60.2434C63.2024 59 65.6004 61.398 65.6004 64.357Z" fill="#2BA4F5"/>
<path d="M65.5996 66.1492H52.3996C52.0971 66.1492 51.8496 65.9017 51.8496 65.5992V64.3562C51.8496 62.0297 53.2191 59.9122 55.3421 58.9662C56.0956 58.6252 56.9096 58.4492 57.7566 58.4492H60.2426C63.4986 58.4492 66.1496 61.1002 66.1496 64.3562V65.5992C66.1496 65.9017 65.9021 66.1492 65.5996 66.1492ZM52.9496 65.0492H65.0496V64.3562C65.0496 61.7052 62.8936 59.5492 60.2426 59.5492H57.7566C57.0636 59.5492 56.4036 59.6922 55.7931 59.9672C54.0661 60.7427 52.9496 62.4642 52.9496 64.3562V65.0492Z" fill="#131313"/>
<path d="M58.9998 57.6266C60.9742 57.6266 62.5748 56.026 62.5748 54.0516C62.5748 52.0771 60.9742 50.4766 58.9998 50.4766C57.0254 50.4766 55.4248 52.0771 55.4248 54.0516C55.4248 56.026 57.0254 57.6266 58.9998 57.6266Z" fill="#2BA4F5"/>
<path d="M59 58.1758C56.723 58.1758 54.875 56.3278 54.875 54.0508C54.875 51.7738 56.723 49.9258 59 49.9258C61.277 49.9258 63.125 51.7738 63.125 54.0508C63.125 56.3278 61.277 58.1758 59 58.1758ZM59 51.0258C57.3335 51.0258 55.975 52.3843 55.975 54.0508C55.975 55.7173 57.3335 57.0758 59 57.0758C60.6665 57.0758 62.025 55.7173 62.025 54.0508C62.025 52.3843 60.6665 51.0258 59 51.0258Z" fill="#131313"/>
</svg>
