<svg width="68" height="13" viewBox="0 0 68 13" fill="none" xmlns="http://www.w3.org/2000/svg">
<path d="M1.45802 7.692V6.384H3.61802C4.36202 6.384 4.89402 6.228 5.21402 5.916C5.54202 5.604 5.70602 5.224 5.70602 4.776C5.70602 4.208 5.52602 3.76 5.16602 3.432C4.81402 3.096 4.26202 2.932 3.51002 2.94H0.750017V2.1H8.39402V2.94H5.37002L5.80202 2.496C6.33802 2.728 6.71802 3.056 6.94202 3.48C7.16602 3.896 7.27802 4.352 7.27802 4.848C7.27802 5.44 7.13402 5.952 6.84602 6.384C6.55802 6.808 6.15002 7.132 5.62202 7.356C5.09402 7.58 4.45802 7.692 3.71402 7.692H1.45802ZM5.75402 10.5L3.55802 7.14H5.22602L7.43402 10.5H5.75402ZM0.750017 4.608V3.768H8.39402V4.608H0.750017ZM12.7266 10.5V9.456L16.0626 6.288C16.3426 6.024 16.5506 5.792 16.6866 5.592C16.8226 5.392 16.9106 5.208 16.9506 5.04C16.9986 4.864 17.0226 4.7 17.0226 4.548C17.0226 4.164 16.8906 3.868 16.6266 3.66C16.3626 3.444 15.9746 3.336 15.4626 3.336C15.0546 3.336 14.6826 3.408 14.3466 3.552C14.0186 3.696 13.7346 3.916 13.4946 4.212L12.4026 3.372C12.7306 2.932 13.1706 2.592 13.7226 2.352C14.2826 2.104 14.9066 1.98 15.5946 1.98C16.2026 1.98 16.7306 2.08 17.1786 2.28C17.6346 2.472 17.9826 2.748 18.2226 3.108C18.4706 3.468 18.5946 3.896 18.5946 4.392C18.5946 4.664 18.5586 4.936 18.4866 5.208C18.4146 5.472 18.2786 5.752 18.0786 6.048C17.8786 6.344 17.5866 6.676 17.2026 7.044L14.3346 9.768L14.0106 9.18H18.9186V10.5H12.7266ZM20.8721 10.584C20.6001 10.584 20.3681 10.492 20.1761 10.308C19.9841 10.116 19.8881 9.876 19.8881 9.588C19.8881 9.284 19.9841 9.044 20.1761 8.868C20.3681 8.684 20.6001 8.592 20.8721 8.592C21.1441 8.592 21.3761 8.684 21.5681 8.868C21.7601 9.044 21.8561 9.284 21.8561 9.588C21.8561 9.876 21.7601 10.116 21.5681 10.308C21.3761 10.492 21.1441 10.584 20.8721 10.584ZM25.6498 10.62C25.0578 10.62 24.4778 10.536 23.9098 10.368C23.3498 10.192 22.8778 9.952 22.4938 9.648L23.1538 8.436C23.4578 8.684 23.8258 8.884 24.2578 9.036C24.6978 9.188 25.1538 9.264 25.6258 9.264C26.1778 9.264 26.6098 9.148 26.9218 8.916C27.2418 8.684 27.4018 8.372 27.4018 7.98C27.4018 7.716 27.3338 7.484 27.1978 7.284C27.0698 7.084 26.8378 6.932 26.5018 6.828C26.1738 6.724 25.7218 6.672 25.1458 6.672H23.1178L23.5498 2.1H28.4818V3.408H24.1258L24.9418 2.664L24.6178 6.084L23.8018 5.352H25.4938C26.3258 5.352 26.9938 5.464 27.4978 5.688C28.0098 5.904 28.3818 6.208 28.6138 6.6C28.8538 6.984 28.9738 7.424 28.9738 7.92C28.9738 8.408 28.8538 8.856 28.6138 9.264C28.3738 9.672 28.0058 10 27.5098 10.248C27.0218 10.496 26.4018 10.62 25.6498 10.62ZM37.678 10.62C37.038 10.62 36.442 10.516 35.89 10.308C35.346 10.092 34.87 9.792 34.462 9.408C34.062 9.016 33.75 8.556 33.526 8.028C33.302 7.5 33.19 6.924 33.19 6.3C33.19 5.676 33.302 5.1 33.526 4.572C33.75 4.044 34.066 3.588 34.474 3.204C34.882 2.812 35.358 2.512 35.902 2.304C36.446 2.088 37.042 1.98 37.69 1.98C38.378 1.98 39.006 2.1 39.574 2.34C40.142 2.572 40.622 2.92 41.014 3.384L40.006 4.332C39.702 4.004 39.362 3.76 38.986 3.6C38.61 3.432 38.202 3.348 37.762 3.348C37.322 3.348 36.918 3.42 36.55 3.564C36.19 3.708 35.874 3.912 35.602 4.176C35.338 4.44 35.13 4.752 34.978 5.112C34.834 5.472 34.762 5.868 34.762 6.3C34.762 6.732 34.834 7.128 34.978 7.488C35.13 7.848 35.338 8.16 35.602 8.424C35.874 8.688 36.19 8.892 36.55 9.036C36.918 9.18 37.322 9.252 37.762 9.252C38.202 9.252 38.61 9.172 38.986 9.012C39.362 8.844 39.702 8.592 40.006 8.256L41.014 9.216C40.622 9.672 40.142 10.02 39.574 10.26C39.006 10.5 38.374 10.62 37.678 10.62ZM42.3648 10.5V4.092H43.7928V5.856L43.6248 5.34C43.8168 4.908 44.1168 4.58 44.5248 4.356C44.9408 4.132 45.4568 4.02 46.0728 4.02V5.448C46.0088 5.432 45.9488 5.424 45.8928 5.424C45.8368 5.416 45.7808 5.412 45.7248 5.412C45.1568 5.412 44.7048 5.58 44.3688 5.916C44.0328 6.244 43.8648 6.736 43.8648 7.392V10.5H42.3648ZM54.2723 10.584C53.7523 10.584 53.2763 10.464 52.8443 10.224C52.4203 9.984 52.0803 9.624 51.8243 9.144C51.5763 8.656 51.4523 8.04 51.4523 7.296C51.4523 6.544 51.5723 5.928 51.8123 5.448C52.0603 4.968 52.3963 4.612 52.8203 4.38C53.2443 4.14 53.7283 4.02 54.2723 4.02C54.9043 4.02 55.4603 4.156 55.9403 4.428C56.4283 4.7 56.8123 5.08 57.0923 5.568C57.3803 6.056 57.5243 6.632 57.5243 7.296C57.5243 7.96 57.3803 8.54 57.0923 9.036C56.8123 9.524 56.4283 9.904 55.9403 10.176C55.4603 10.448 54.9043 10.584 54.2723 10.584ZM50.7203 12.828V4.092H52.1483V5.604L52.1003 7.308L52.2203 9.012V12.828H50.7203ZM54.1043 9.3C54.4643 9.3 54.7843 9.22 55.0643 9.06C55.3523 8.9 55.5803 8.668 55.7483 8.364C55.9163 8.06 56.0003 7.704 56.0003 7.296C56.0003 6.88 55.9163 6.524 55.7483 6.228C55.5803 5.924 55.3523 5.692 55.0643 5.532C54.7843 5.372 54.4643 5.292 54.1043 5.292C53.7443 5.292 53.4203 5.372 53.1323 5.532C52.8443 5.692 52.6163 5.924 52.4483 6.228C52.2803 6.524 52.1963 6.88 52.1963 7.296C52.1963 7.704 52.2803 8.06 52.4483 8.364C52.6163 8.668 52.8443 8.9 53.1323 9.06C53.4203 9.22 53.7443 9.3 54.1043 9.3ZM57.6028 11.7L61.5628 0.395999H62.9068L58.9468 11.7H57.6028ZM66.5628 10.5V9.204L66.4788 8.928V6.66C66.4788 6.22 66.3468 5.88 66.0828 5.64C65.8188 5.392 65.4188 5.268 64.8828 5.268C64.5228 5.268 64.1668 5.324 63.8148 5.436C63.4708 5.548 63.1788 5.704 62.9388 5.904L62.3508 4.812C62.6948 4.548 63.1028 4.352 63.5748 4.224C64.0548 4.088 64.5508 4.02 65.0628 4.02C65.9908 4.02 66.7068 4.244 67.2108 4.692C67.7228 5.132 67.9788 5.816 67.9788 6.744V10.5H66.5628ZM64.5468 10.584C64.0668 10.584 63.6468 10.504 63.2868 10.344C62.9268 10.176 62.6468 9.948 62.4468 9.66C62.2548 9.364 62.1588 9.032 62.1588 8.664C62.1588 8.304 62.2428 7.98 62.4108 7.692C62.5868 7.404 62.8708 7.176 63.2628 7.008C63.6548 6.84 64.1748 6.756 64.8228 6.756H66.6828V7.752H64.9308C64.4188 7.752 64.0748 7.836 63.8988 8.004C63.7228 8.164 63.6348 8.364 63.6348 8.604C63.6348 8.876 63.7428 9.092 63.9588 9.252C64.1748 9.412 64.4748 9.492 64.8588 9.492C65.2268 9.492 65.5548 9.408 65.8428 9.24C66.1388 9.072 66.3508 8.824 66.4788 8.496L66.7308 9.396C66.5868 9.772 66.3268 10.064 65.9508 10.272C65.5828 10.48 65.1148 10.584 64.5468 10.584Z" fill="#131313"/>
</svg>
