<svg width="41" height="40" viewBox="0 0 41 40" fill="none" xmlns="http://www.w3.org/2000/svg">
<rect x="0.670044" width="40" height="40" rx="5" fill="#4E8D40"/>
<path d="M28.9784 25.2751C28.9784 25.5751 28.9117 25.8834 28.7701 26.1834C28.6284 26.4834 28.4451 26.7667 28.2034 27.0334C27.7951 27.4834 27.3451 27.8084 26.8367 28.0167C26.3367 28.2251 25.7951 28.3334 25.2117 28.3334C24.3617 28.3334 23.4534 28.1334 22.4951 27.7251C21.5367 27.3167 20.5784 26.7667 19.6284 26.0751C18.6701 25.3751 17.7617 24.6001 16.8951 23.7417C16.0367 22.8751 15.2617 21.9667 14.5701 21.0167C13.8867 20.0667 13.3367 19.1167 12.9367 18.1751C12.5367 17.2251 12.3367 16.3167 12.3367 15.4501C12.3367 14.8834 12.4367 14.3417 12.6367 13.8417C12.8367 13.3334 13.1534 12.8667 13.5951 12.4501C14.1284 11.9251 14.7117 11.6667 15.3284 11.6667C15.5617 11.6667 15.7951 11.7167 16.0034 11.8167C16.2201 11.9167 16.4117 12.0667 16.5617 12.2834L18.4951 15.0084C18.6451 15.2167 18.7534 15.4084 18.8284 15.5917C18.9034 15.7667 18.9451 15.9417 18.9451 16.1001C18.9451 16.3001 18.8867 16.5001 18.7701 16.6917C18.6617 16.8834 18.5034 17.0834 18.3034 17.2834L17.6701 17.9417C17.5784 18.0334 17.5367 18.1417 17.5367 18.2751C17.5367 18.3417 17.5451 18.4001 17.5617 18.4667C17.5867 18.5334 17.6117 18.5834 17.6284 18.6334C17.7784 18.9084 18.0367 19.2667 18.4034 19.7001C18.7784 20.1334 19.1784 20.5751 19.6117 21.0167C20.0617 21.4584 20.4951 21.8667 20.9367 22.2417C21.3701 22.6084 21.7284 22.8584 22.0117 23.0084C22.0534 23.0251 22.1034 23.0501 22.1617 23.0751C22.2284 23.1001 22.2951 23.1084 22.3701 23.1084C22.5117 23.1084 22.6201 23.0584 22.7117 22.9667L23.3451 22.3417C23.5534 22.1334 23.7534 21.9751 23.9451 21.8751C24.1367 21.7584 24.3284 21.7001 24.5367 21.7001C24.6951 21.7001 24.8617 21.7334 25.0451 21.8084C25.2284 21.8834 25.4201 21.9917 25.6284 22.1334L28.3867 24.0917C28.6034 24.2417 28.7534 24.4167 28.8451 24.6251C28.9284 24.8334 28.9784 25.0417 28.9784 25.2751Z" stroke="white" stroke-width="1.5" stroke-miterlimit="10"/>
<path d="M24.17 16.5H28.17M24.17 16.5V12.5V16.5Z" stroke="white" stroke-width="1.5" stroke-linecap="round" stroke-linejoin="round"/>
</svg>
